<?xml version="1.0" encoding="UTF-8"?>
<svg version="1.1" xmlns="http://www.w3.org/2000/svg" width="521" height="306">
<path d="M0 0 C3.77548454 1.56879341 6.16553294 3.91901732 9.03668213 6.7961731 C9.53012611 7.28790823 10.02357009 7.77964336 10.53196692 8.28627956 C12.18267592 9.93369672 13.8261392 11.58815575 15.46972656 13.24267578 C16.65213793 14.42565133 17.83498994 15.60818658 19.01824951 16.79031372 C22.22901572 20.00050568 25.43357446 23.21683052 28.63706684 26.43427896 C31.98605788 29.79576526 35.34070655 33.15159559 38.69476318 36.50802612 C45.04518691 42.86466815 51.3904948 49.22639164 57.73398757 55.58994949 C64.95611674 62.83442672 72.18391994 70.07323155 79.41220903 77.31156182 C94.28113518 92.20139791 109.14290942 107.09835497 124 122 C127.66434951 120.28974534 129.9345589 118.24002076 132.75 115.3125 C136.34181342 111.64727725 139.98517547 108.17006074 143.8828125 104.8359375 C146.40599455 102.6479383 148.85554519 100.38706887 151.3125 98.125 C156.71503535 93.20417219 162.30306169 88.57391261 168 84 C169.14376938 83.06446215 170.28697144 82.12823039 171.4296875 81.19140625 C213.099732 47.19727557 213.099732 47.19727557 225.3125 48.1875 C227 49 227 49 229 51 C229.4375 53.9375 229.4375 53.9375 229 57 C225.4789312 59.48280493 221.57754848 61.17154008 217.6875 63 C200.58162904 71.34159675 185.52205228 84.01196374 171.140625 96.33203125 C168.18083319 98.86208756 165.15871204 101.30893935 162.125 103.75 C158.45764557 106.73271084 155.0546562 109.81060217 151.78245544 113.2184906 C150.00470025 114.99530224 148.1599952 116.62859243 146.25024414 118.26196289 C142.23452319 121.75306184 138.43886857 125.41595543 134.68359375 129.18359375 C134.02343765 129.84279312 133.36328156 130.50199249 132.68312073 131.1811676 C131.29964494 132.56396835 129.91740917 133.94801076 128.53637695 135.33325195 C126.44268331 137.43230343 124.34370126 139.5259594 122.24414062 141.61914062 C120.89030429 142.97363786 119.53677825 144.32844531 118.18359375 145.68359375 C117.56673203 146.29843124 116.9498703 146.91326874 116.3143158 147.54673767 C112.56384443 151.31710173 109.0008955 155.20584211 105.52818298 159.23370361 C103.4452478 161.64119076 101.28507345 163.97423867 99.125 166.3125 C94.68852956 171.18862067 90.43582283 176.16908006 86.33251953 181.32861328 C85.37178904 182.53366292 84.40598723 183.73467559 83.43701172 184.93310547 C70.71035085 200.69534875 56.90094244 217.95069001 52 238 C62.91642679 234.39283289 72.25901016 229.00791589 82 223 C84.4375 224.125 84.4375 224.125 87 226 C87.8125 229.1875 87.8125 229.1875 88 232 C76.82226624 240.47344333 62.61374775 249.97614953 48 248 C44.87674133 246.243167 43.50989805 244.81120145 41.625 241.8125 C39.09575762 230.4309093 45.90074671 219.1161169 51.74414062 209.76733398 C63.28922616 191.85571348 76.64213163 174.83492859 91.04296875 159.13671875 C92.79511485 157.22369696 94.49700766 155.27984717 96.1875 153.3125 C102.85418725 145.65290188 109.8198011 138.1801989 117 131 C76.41 90.41 35.82 49.82 -6 8 C-4.21844267 4.43688534 -2.83236991 2.64354525 0 0 Z " fill="#004071" transform="translate(224,12)"/>
<path d="M0 0 C0.88441772 -0.0157608 1.76883545 -0.03152161 2.68005371 -0.04776001 C4.09429626 -0.03257828 4.09429626 -0.03257828 5.53710938 -0.01708984 C6.51699829 -0.02187347 7.49688721 -0.0266571 8.50646973 -0.03158569 C10.57415374 -0.03498175 12.64189166 -0.02579997 14.70947266 -0.00488281 C17.87068639 0.02188651 21.02834955 -0.00464106 24.18945312 -0.03662109 C26.2011797 -0.03331694 28.21290406 -0.0269106 30.22460938 -0.01708984 C31.16743774 -0.027211 32.11026611 -0.03733215 33.08166504 -0.04776001 C37.65815893 0.03379559 39.73777044 0.15938805 43.48046875 2.99707031 C45.38085938 5.64697266 45.38085938 5.64697266 45.94335938 8.70947266 C45.23338501 12.41711656 44.38907328 13.38634812 41.38085938 15.64697266 C38.57389935 16.06483968 36.14233996 16.25171579 33.33398438 16.25634766 C32.56278259 16.27288391 31.79158081 16.28942017 30.99700928 16.30645752 C28.54154483 16.35491859 26.08669954 16.37630303 23.63085938 16.39697266 C21.96285951 16.42513411 20.29488846 16.4550618 18.62695312 16.48681641 C14.54497287 16.56067637 10.46333592 16.61026201 6.38085938 16.64697266 C6.38085938 21.26697266 6.38085938 25.88697266 6.38085938 30.64697266 C9.43400391 30.59476563 9.43400391 30.59476563 12.54882812 30.54150391 C14.53132018 30.52063557 16.51381501 30.49987672 18.49633789 30.48217773 C19.86880454 30.46713833 21.24122351 30.44670133 22.61352539 30.4206543 C24.59174594 30.38406045 26.57032451 30.36880568 28.54882812 30.35400391 C29.73758545 30.33829346 30.92634277 30.32258301 32.15112305 30.30639648 C35.7172552 30.68244565 37.55208632 31.47798104 40.38085938 33.64697266 C41.88085938 36.52197266 41.88085938 36.52197266 42.38085938 39.64697266 C41.22295706 42.47740055 40.23952507 44.0757647 37.68457031 45.77539062 C34.58630016 46.94758482 31.95570744 46.87131343 28.64648438 46.84228516 C27.35097656 46.83583984 26.05546875 46.82939453 24.72070312 46.82275391 C23.35741919 46.80604459 21.99413794 46.78911471 20.63085938 46.77197266 C19.25195953 46.76193605 17.87305272 46.75281139 16.49414062 46.74462891 C13.12297214 46.7210543 9.75189373 46.68518337 6.38085938 46.64697266 C6.38085938 51.59697266 6.38085938 56.54697266 6.38085938 61.64697266 C7.42016602 61.62602539 8.45947266 61.60507813 9.53027344 61.58349609 C13.3916238 61.51101592 17.25291421 61.46514435 21.11474609 61.42724609 C22.7850964 61.40714873 24.4553765 61.37986582 26.12548828 61.34521484 C28.52849658 61.29661146 30.93057371 61.2739861 33.33398438 61.25634766 C34.07892151 61.23570251 34.82385864 61.21505737 35.59136963 61.19378662 C39.08315373 61.19228046 41.01254364 61.37222981 43.84863281 63.48779297 C45.38085938 65.64697266 45.38085938 65.64697266 45.94335938 68.58447266 C45.16314802 72.83229004 43.81823486 74.04078358 40.38085938 76.64697266 C36.99486329 77.38358775 33.67933336 77.34812122 30.22460938 77.31103516 C28.754776 77.3182106 28.754776 77.3182106 27.25524902 77.32553101 C25.18756501 77.32892706 23.11982709 77.31974529 21.05224609 77.29882812 C17.89103236 77.2720588 14.7333692 77.29858637 11.57226562 77.33056641 C9.56053905 77.32726226 7.54881469 77.32085592 5.53710938 77.31103516 C4.59428101 77.32115631 3.65145264 77.33127747 2.68005371 77.34170532 C1.79563599 77.32594452 0.91121826 77.31018372 0 77.29394531 C-0.77323608 77.28996735 -1.54647217 77.28598938 -2.34313965 77.28189087 C-5.86548638 76.29928932 -7.38894599 74.48826812 -9.61914062 71.64697266 C-10.25405884 68.57373047 -10.25405884 68.57373047 -10.26611328 65.10009766 C-10.28187408 63.79524414 -10.29763489 62.49039063 -10.31387329 61.14599609 C-10.30492323 59.72964633 -10.29466817 58.3133043 -10.28320312 56.89697266 C-10.28657383 55.43635657 -10.29142858 53.97574323 -10.29769897 52.51513672 C-10.30505852 49.45854913 -10.2943959 46.40269367 -10.27099609 43.34619141 C-10.24250707 39.43505582 -10.25891623 35.52563568 -10.28885841 31.61456299 C-10.3069573 28.59980424 -10.30116189 25.58544987 -10.28821945 22.57067871 C-10.28489251 21.12902624 -10.28894755 19.68733662 -10.30061722 18.24572754 C-10.31336465 16.22844173 -10.29047798 14.2110266 -10.26611328 12.19384766 C-10.26014633 10.47439941 -10.26014633 10.47439941 -10.25405884 8.72021484 C-9.12023434 3.23207917 -5.62797265 0.02895349 0 0 Z " fill="#2A2A29" transform="translate(225.619140625,113.35302734375)"/>
<path d="M0 0 C3.11684531 3.36677226 4.98503004 6.76064229 6.77734375 10.9609375 C7.28507324 12.14042969 7.79280273 13.31992188 8.31591797 14.53515625 C8.85698045 15.81487804 9.39749436 17.09483189 9.9375 18.375 C10.50105647 19.6993926 11.06502844 21.02360846 11.62939453 22.34765625 C12.51139624 24.41935629 13.39188801 26.49164894 14.26855469 28.56561279 C16.09794606 32.89304653 17.95530795 37.20699878 19.83772278 41.5116272 C21.06574135 44.32470887 22.28112379 47.14314261 23.49417114 49.96270752 C24.07830971 51.31377714 24.6673563 52.66273602 25.26144409 54.00946045 C26.09222791 55.89633735 26.9035686 57.79050934 27.7109375 59.6875 C28.17806152 60.76386719 28.64518555 61.84023437 29.12646484 62.94921875 C30.12037215 66.42039419 29.90344783 68.53294902 29 72 C27.9375 73.875 27.9375 73.875 26 75 C18.98658029 75.77926886 18.98658029 75.77926886 15.91796875 73.35546875 C13.71647359 70.65179954 12.53785188 68.11052911 11.25 64.875 C10.60804687 63.29332031 10.60804687 63.29332031 9.953125 61.6796875 C9 59 9 59 9 57 C-0.9 57 -10.8 57 -21 57 C-21.33 58.65 -21.66 60.3 -22 62 C-22.76100086 63.9170858 -23.57590556 65.81346817 -24.4375 67.6875 C-24.86933594 68.64011719 -25.30117188 69.59273438 -25.74609375 70.57421875 C-27 73 -27 73 -29 75 C-33.98313973 75.57183571 -35.93268699 75.76236644 -40.0625 72.8125 C-42 70 -42 70 -41.82397461 67.82373047 C-40.73715358 64.09923507 -39.27637999 60.56956367 -37.75390625 57.0078125 C-37.26358917 55.84533745 -37.26358917 55.84533745 -36.7633667 54.65937805 C-35.70147157 52.14574029 -34.63252311 49.63518752 -33.5625 47.125 C-32.83017923 45.4011838 -32.09800199 43.67730663 -31.3659668 41.95336914 C-29.91540843 38.53981081 -28.46147932 35.12771115 -27.00585938 31.71630859 C-25.28100822 27.66917464 -23.5816776 23.61214482 -21.890625 19.55078125 C-21.03178035 17.51279725 -20.172455 15.47501572 -19.3125 13.4375 C-18.9400415 12.53080566 -18.56758301 11.62411133 -18.18383789 10.68994141 C-16.12712676 5.87484529 -14.15303823 2.38818143 -10 -1 C-5.94398689 -2.35200437 -3.9503364 -1.52469124 0 0 Z M-6 22 C-7.33620809 25.14462004 -8.66848288 28.29089113 -10 31.4375 C-10.57234375 32.78424805 -10.57234375 32.78424805 -11.15625 34.15820312 C-11.5171875 35.01220703 -11.878125 35.86621094 -12.25 36.74609375 C-12.75273438 37.93223267 -12.75273438 37.93223267 -13.265625 39.14233398 C-14.06127279 40.82206892 -14.06127279 40.82206892 -14 42 C-8.39 42 -2.78 42 3 42 C0.36 35.4 -2.28 28.8 -5 22 C-5.33 22 -5.66 22 -6 22 Z " fill="#2A2A29" transform="translate(55,115)"/>
<path d="M0 0 C1.91460337 1.94322225 3.61072802 3.82525953 5.3125 5.9375 C5.78598877 6.51072998 6.25947754 7.08395996 6.74731445 7.67456055 C11.06131856 12.9501417 15.09424528 18.41555414 19 24 C22.69343442 20.4579898 25.87111513 16.72552406 28.9375 12.625 C29.81263625 11.47567386 30.68893178 10.32722948 31.56640625 9.1796875 C32.19313232 8.35936035 32.19313232 8.35936035 32.83251953 7.52246094 C39.11271172 -0.6672669 39.11271172 -0.6672669 41.96875 -1.73828125 C45.36452417 -2.17581369 47.22958807 -0.86701673 50 1 C51.625 3.75 51.625 3.75 52 7 C49.38226085 12.31807686 46.0524095 16.53422717 42.125 20.9375 C37.8538632 25.81490455 33.79163412 30.7338415 30 36 C31.47079084 39.24460895 33.31424176 41.80554495 35.5625 44.5625 C36.26890625 45.43390625 36.9753125 46.3053125 37.703125 47.203125 C39.27159733 49.11303349 40.84472802 51.01912349 42.421875 52.921875 C43.21078125 53.87578125 43.9996875 54.8296875 44.8125 55.8125 C45.54082031 56.68519531 46.26914063 57.55789062 47.01953125 58.45703125 C52.04367402 64.90814948 52.04367402 64.90814948 51.875 69.125 C50.53492334 73.52810903 50.53492334 73.52810903 48 75 C44.56209738 75.77056438 43.23841985 76.04172946 40 75 C36.46302219 72.09916928 33.79125311 68.60574992 31 65 C30.08163181 63.84823802 29.16233319 62.69721742 28.2421875 61.546875 C21.21977648 52.65932943 21.21977648 52.65932943 20 49 C19.34 49 18.68 49 18 49 C17.76796875 49.53109375 17.5359375 50.0621875 17.296875 50.609375 C15.59786217 53.74129022 13.44591517 56.45888479 11.25 59.25 C10.34846439 60.40586491 9.44742168 61.56211443 8.546875 62.71875 C8.11052734 63.27820313 7.67417969 63.83765625 7.22460938 64.4140625 C5.14666557 67.10511572 3.14759891 69.85390383 1.15625 72.609375 C-0.85072032 75.02316362 -2.21011517 75.01945511 -5.375 75.3125 C-9 75 -9 75 -11.4375 73.375 C-13.49950749 70.24074861 -13.45413223 68.71765112 -13 65 C-11.47405106 62.58858746 -10.01684231 60.58934313 -8.1875 58.4375 C-7.69918701 57.84050293 -7.21087402 57.24350586 -6.70776367 56.62841797 C-5.15422691 54.73855874 -3.57953181 52.86816498 -2 51 C-0.9398977 49.73324567 0.12000089 48.46632083 1.1796875 47.19921875 C3.76779118 44.1165677 6.37761787 41.05352813 9 38 C7.63454801 35.03026546 6.05289522 32.67172127 3.953125 30.171875 C3.355 29.45386719 2.756875 28.73585937 2.140625 27.99609375 C1.51671875 27.25488281 0.8928125 26.51367188 0.25 25.75 C-3.36551551 21.43742535 -6.97141337 17.11626289 -10.44921875 12.69140625 C-10.93994873 12.07209229 -11.43067871 11.45277832 -11.9362793 10.81469727 C-13 9 -13 9 -13.0625 5.1875 C-11.57142857 0.71428571 -11.57142857 0.71428571 -9 -1 C-5.42370616 -2.54972733 -3.38845976 -1.73591137 0 0 Z " fill="#2A2A29" transform="translate(100,115)"/>
<path d="M0 0 C3.14598494 1.31339975 5.22382612 3.5329972 7.57778549 5.92236233 C8.37307942 6.71169465 8.37307942 6.71169465 9.1844399 7.51697308 C10.96194714 9.28484383 12.72851728 11.063254 14.495327 12.84181118 C15.76620752 14.11026424 17.03773328 15.37807112 18.30985641 16.64527798 C21.76481281 20.09081706 25.21026965 23.54571407 28.65385723 27.00261092 C32.25389359 30.61394666 35.86162163 34.21758358 39.46828842 37.82229519 C45.52272492 43.8758484 51.57114712 49.93535995 57.61593246 55.99854946 C64.61354439 63.01734381 71.61996046 70.02725211 78.63128829 77.03234333 C85.366804 83.7621735 92.09664894 90.49764548 98.82370377 97.23593235 C101.69118513 100.10806899 104.56055501 102.97829945 107.43141556 105.8470583 C110.80784826 109.22161362 114.17927243 112.60109356 117.54681587 115.984519 C118.78674231 117.228704 120.02839008 118.47117615 121.27183342 119.71184635 C122.96221917 121.39903236 124.64637607 123.09219295 126.3290062 124.78710842 C126.82821005 125.28253295 127.3274139 125.77795748 127.84174514 126.28839487 C131.19942856 129.68989803 131.19942856 129.68989803 131.19942856 131.9182272 C129.54940028 133.27209655 127.88198986 134.60500862 126.19942856 135.9182272 C125.86942856 136.5782272 125.53942856 137.2382272 125.19942856 137.9182272 C121.3505535 136.34028192 118.73783737 133.7450982 115.85230637 130.84525967 C115.3254884 130.32367838 114.79867043 129.80209709 114.25588828 129.26471031 C112.49228798 127.51610941 110.73590735 125.76043451 108.97945786 124.00465298 C107.71656957 122.74938589 106.45327933 121.49452308 105.18961716 120.24003506 C101.75940536 116.83177135 98.33579218 113.41695373 94.91399741 110.00024176 C92.77756985 107.86745555 90.63984948 105.73597391 88.50168419 103.60492992 C81.04747002 96.17520546 73.59898967 88.73978204 66.15523911 81.29957485 C59.20737861 74.35535547 52.24647972 67.42439462 45.27956074 60.49930108 C39.30382279 54.55818925 33.33767636 48.60755917 27.37887698 42.64945877 C23.81731255 39.08868938 20.25183593 35.53205669 16.67651558 31.98509502 C13.31748876 28.65211914 9.97049005 25.30752797 6.63253212 21.95345592 C5.40287983 20.72197914 4.16890876 19.49479807 2.93044281 18.27218533 C1.24575566 16.60776362 -0.42294201 14.9288239 -2.08836746 13.24516201 C-2.58659321 12.76013623 -3.08481895 12.27511046 -3.59814245 11.77538693 C-4.93576908 10.40385532 -4.93576908 10.40385532 -6.80057144 7.9182272 C-6.67483864 4.93410531 -5.85065258 3.98212383 -3.98807144 1.6057272 C-1.80057144 -0.0817728 -1.80057144 -0.0817728 0 0 Z " fill="#0B7DC2" transform="translate(368.8005714416504,156.08177280426025)"/>
<path d="M0 0 C3.79247167 1.57272655 6.1918788 3.94538892 9.074646 6.83413696 C9.57217353 7.32995565 10.06970107 7.82577433 10.58230519 8.33661783 C12.24683353 9.99785409 13.90411658 11.66613352 15.56152344 13.33447266 C16.7537869 14.52730029 17.94649099 15.71968764 19.13960266 16.91166687 C22.3772274 20.14871734 25.60864481 23.39190117 28.83899593 26.63620806 C32.21601437 30.02572142 35.59869012 33.40957912 38.98077393 36.79403687 C45.38432149 43.20380283 51.78275334 49.6186504 58.17937016 56.03533208 C65.46195784 63.34026753 72.75021929 70.63953083 80.03896666 77.93831944 C95.03230674 92.95256969 110.01849505 107.97394102 125 123 C123.31847927 126.74020498 121.30960527 128.56134348 118 131 C111.11813484 125.21802958 104.78226134 118.91791062 98.44335938 112.55688477 C97.2995518 111.41279461 96.15552298 110.26892561 95.0112915 109.1252594 C91.92697662 106.04122973 88.84574021 102.95414129 85.76507378 99.86646771 C82.53712047 96.63223484 79.30630782 93.40086079 76.07580566 90.16917419 C69.96834881 84.05861755 63.86344411 77.94551777 57.75946665 71.83148569 C50.80613979 64.8669556 43.84995057 57.90528743 36.89352703 50.94385064 C22.59251179 36.63240163 8.29507028 22.317387 -6 8 C-4.44805246 4.67240077 -2.69378051 2.51419515 0 0 Z " fill="#31731F" transform="translate(224,12)"/>
<path d="M0 0 C2.36497439 1.86708505 3.66030715 3.32061431 5 6 C5.09051069 7.69543591 5.11754872 9.39443978 5.11352539 11.09228516 C5.11344986 12.15323395 5.11337433 13.21418274 5.11329651 14.30728149 C5.10813522 15.45626923 5.10297394 16.60525696 5.09765625 17.7890625 C5.0962413 18.96262299 5.09482635 20.13618347 5.09336853 21.3453064 C5.08775689 25.10522985 5.07520238 28.86509445 5.0625 32.625 C5.0574865 35.16926998 5.05292333 37.71354088 5.04882812 40.2578125 C5.03778368 46.50522853 5.02103418 52.75261006 5 59 C5.91289795 59.0093457 6.8257959 59.01869141 7.76635742 59.02832031 C11.16816048 59.07245181 14.56872167 59.134114 17.9699707 59.20751953 C19.4392545 59.23566611 20.90868795 59.25691209 22.37817383 59.27099609 C24.49638114 59.2925153 26.61280153 59.33920334 28.73046875 59.390625 C30.00301514 59.41157227 31.27556152 59.43251953 32.58666992 59.45410156 C36.53396198 60.08539725 38.20328798 61.19519095 41 64 C42 66.4375 42 66.4375 42 69 C40.37844371 72.48634601 39.23546708 73.84302194 36 76 C34.11636353 76.26742554 34.11636353 76.26742554 31.97509766 76.29052734 C31.17061188 76.30328705 30.3661261 76.31604675 29.53726196 76.32919312 C28.67160614 76.33141876 27.80595032 76.33364441 26.9140625 76.3359375 C26.02012787 76.3425943 25.12619324 76.3492511 24.20516968 76.35610962 C22.31388405 76.36623469 20.4225627 76.37092668 18.53125 76.37060547 C15.64262734 76.37497335 12.75553924 76.41127895 9.8671875 76.44921875 C8.02865105 76.45508806 6.19010735 76.45905669 4.3515625 76.4609375 C3.48995514 76.47530853 2.62834778 76.48967957 1.7406311 76.50448608 C-2.36877163 76.47329895 -4.46719016 76.33566417 -8.02197266 74.09619141 C-11.28860162 70.63441946 -11.13713901 68.45882218 -11.17700195 63.77783203 C-11.18983719 62.46952423 -11.20267242 61.16121643 -11.21589661 59.81326294 C-11.22406327 58.37811663 -11.23150714 56.94296606 -11.23828125 55.5078125 C-11.24235678 54.78649014 -11.2464323 54.06516777 -11.25063133 53.32198715 C-11.27149017 49.50486283 -11.28579322 45.68777446 -11.29516602 41.87060547 C-11.30623639 37.92711458 -11.3406432 33.98418705 -11.38033772 30.04089546 C-11.40647455 27.00913438 -11.41485513 23.97750822 -11.41844749 20.94564438 C-11.42332032 19.49196437 -11.43495427 18.03829067 -11.45348549 16.58472061 C-11.47781203 14.55027077 -11.47449853 12.51554727 -11.4699707 10.48095703 C-11.47583694 9.32338898 -11.48170319 8.16582092 -11.48774719 6.97317505 C-10.39962498 0.34027618 -6.15830571 -0.87975796 0 0 Z " fill="#2A2A29" transform="translate(170,114)"/>
<path d="M0 0 C0.98367554 -0.0038269 1.96735107 -0.00765381 2.98083496 -0.01159668 C5.05868555 -0.01431627 7.13657035 -0.00695182 9.21435547 0.00976562 C12.39498211 0.03117416 15.57334987 0.00996512 18.75390625 -0.015625 C20.77344249 -0.01298173 22.79297732 -0.00785678 24.8125 0 C25.76362671 -0.00809692 26.71475342 -0.01619385 27.69470215 -0.02453613 C34.26672417 0.06880883 34.26672417 0.06880883 37.50195312 2.40820312 C38.90625 4.53125 38.90625 4.53125 39.46875 7.03125 C38.90625 9.53125 38.90625 9.53125 36.859375 11.671875 C33.18974316 13.98238394 30.27805692 13.98946432 26.09375 13.78125 C25.40087891 13.76320312 24.70800781 13.74515625 23.99414062 13.7265625 C22.29757336 13.67976064 20.60172524 13.60802624 18.90625 13.53125 C18.92290459 14.38236359 18.92290459 14.38236359 18.93989563 15.25067139 C19.05049634 21.15523541 19.12591958 27.05950537 19.1809082 32.96484375 C19.20605574 35.16874136 19.24017827 37.37255555 19.28344727 39.57617188 C19.34408686 42.74369886 19.37245749 45.9101236 19.39453125 49.078125 C19.42033768 50.06367371 19.4461441 51.04922241 19.47273254 52.06463623 C19.47553316 58.89201778 19.47553316 58.89201778 16.53979492 62.18847656 C13.90625 63.53125 13.90625 63.53125 11.28125 63.46875 C8.70582318 62.45213415 7.61692274 61.68273407 5.90625 59.53125 C5.54548645 57.42414856 5.54548645 57.42414856 5.56567383 54.96801758 C5.56590042 54.04728958 5.56612701 53.12656158 5.56636047 52.17793274 C5.58184433 51.18722275 5.59732819 50.19651276 5.61328125 49.17578125 C5.61752609 48.15900803 5.62177094 47.1422348 5.62614441 46.09465027 C5.64295003 42.84408188 5.68060618 39.5941313 5.71875 36.34375 C5.73379438 34.14128499 5.74748321 31.93881027 5.75976562 29.73632812 C5.79285964 24.33442428 5.84307777 18.93288128 5.90625 13.53125 C4.36904297 13.60085937 4.36904297 13.60085937 2.80078125 13.671875 C1.44013344 13.70941011 0.07945395 13.74580841 -1.28125 13.78125 C-1.95478516 13.81476563 -2.62832031 13.84828125 -3.32226562 13.8828125 C-6.97023937 13.95399248 -8.93300071 13.63246251 -12.046875 11.671875 C-14.09375 9.53125 -14.09375 9.53125 -14.65625 7.03125 C-12.9131886 -0.71568957 -6.55557246 -0.05580747 0 0 Z " fill="#2A2A29" transform="translate(468.09375,121.46875)"/>
<path d="M0 0 C2.58847188 2.0319809 3.84291245 3.2377279 4.5146637 6.49742126 C4.52396156 7.90043236 4.52396156 7.90043236 4.53344727 9.33178711 C4.55720177 10.92880714 4.55720177 10.92880714 4.58143616 12.55809021 C4.57647629 13.70294388 4.57151642 14.84779755 4.56640625 16.02734375 C4.57570412 17.79894615 4.57570412 17.79894615 4.58518982 19.6063385 C4.59229277 22.10368017 4.58910581 24.60106914 4.57641602 27.09838867 C4.56256345 30.91999511 4.59660334 34.73914778 4.63476562 38.56054688 C4.63571692 40.98697977 4.63385745 43.41341572 4.62890625 45.83984375 C4.64216446 46.98267319 4.65542267 48.12550262 4.66908264 49.30296326 C4.56549974 58.12831826 4.56549974 58.12831826 1.62475586 61.26000977 C-1 63 -1 63 -3.625 63 C-6.18744979 61.92107377 -7.30750258 61.18613468 -9 59 C-9.38095093 56.53344727 -9.38095093 56.53344727 -9.38818359 53.56640625 C-9.39764008 52.45515381 -9.40709656 51.34390137 -9.4168396 50.19897461 C-9.41076691 48.99893799 -9.40469421 47.79890137 -9.3984375 46.5625 C-9.40130768 45.33088135 -9.40417786 44.0992627 -9.40713501 42.83032227 C-9.40970158 39.55652043 -9.3976161 36.28314463 -9.38085938 33.00939941 C-9.37500553 31.00189615 -9.38083795 28.99478631 -9.39111328 26.98730469 C-9.4096098 23.13718305 -9.40740992 19.28764566 -9.3984375 15.4375 C-9.40451019 14.23746338 -9.41058289 13.03742676 -9.4168396 11.80102539 C-9.40738312 10.68977295 -9.39792664 9.57852051 -9.38818359 8.43359375 C-9.38579681 7.45447021 -9.38341003 6.47534668 -9.38095093 5.46655273 C-9 3 -9 3 -7.65933228 1.18774414 C-5.03502119 -0.6907284 -3.12986419 -0.44712346 0 0 Z " fill="#2A2A29" transform="translate(447,122)"/>
<path d="M0 0 C2.78513544 1.11208933 4.32228774 2.66708125 6.44219971 4.7888031 C7.28276917 5.62314377 8.12333862 6.45748444 8.98937988 7.31710815 C9.88743347 8.22437149 10.78548706 9.13163483 11.71075439 10.06639099 C12.63732849 10.99246658 13.56390259 11.91854218 14.51855469 12.87268066 C16.47670926 14.83092485 18.42960023 16.79422631 20.37872314 18.76145935 C22.88107873 21.28654879 25.39440728 23.80036514 27.9115181 26.31073666 C30.30816896 28.70325053 32.69672439 31.10376662 35.08575439 33.50389099 C36.44498016 34.86174965 36.44498016 34.86174965 37.83166504 36.24703979 C38.65962585 37.08453262 39.48758667 37.92202545 40.34063721 38.78489685 C41.44172821 39.89289894 41.44172821 39.89289894 42.56506348 41.02328491 C44.13262939 42.85154724 44.13262939 42.85154724 44.13262939 44.85154724 C42.47877706 46.20074256 40.8109274 47.53288452 39.13262939 48.85154724 C38.47262939 49.84154724 37.81262939 50.83154724 37.13262939 51.85154724 C31.36381568 46.19846355 25.60853805 40.53208774 19.87015438 34.84813309 C17.20529977 32.20939866 14.53598423 29.57552557 11.85601807 26.95213318 C9.27099373 24.42134194 6.69829282 21.87861295 4.13376045 19.32706451 C3.15206563 18.35462522 2.1659726 17.38660582 1.17551994 16.42308807 C-0.20841389 15.07532034 -1.57557021 13.71038891 -2.9418335 12.3447113 C-3.72570938 11.57193848 -4.50958527 10.79916565 -5.31721497 10.00297546 C-6.86737061 7.85154724 -6.86737061 7.85154724 -6.72599792 5.71525574 C-5.34741998 2.72295934 -3.58744831 -0.28519598 0 0 Z " fill="#004070" transform="translate(368.86737060546875,156.14845275878906)"/>
<path d="M0 0 C2.71060377 1.07352092 4.18629697 2.53105183 6.24713135 4.59373474 C7.0476593 5.38803391 7.84818726 6.18233307 8.67297363 7.0007019 C9.52727966 7.86421768 10.38158569 8.72773346 11.26177979 9.61741638 C12.14396179 10.49909988 13.0261438 11.38078339 13.93505859 12.28918457 C15.79800012 14.1544671 17.6577505 16.02237301 19.51275635 17.89549255 C21.89404464 20.29951707 24.28630097 22.69225825 26.68234634 25.0815649 C28.96405771 27.3591391 31.23769184 29.64473412 33.51177979 31.92991638 C34.37418274 32.79140793 35.23658569 33.65289948 36.12512207 34.54049683 C36.91304138 35.33794815 37.70096069 36.13539948 38.51275635 36.95701599 C39.56055267 38.0117234 39.56055267 38.0117234 40.6295166 39.08773804 C42.12115479 40.84007263 42.12115479 40.84007263 42.12115479 42.84007263 C40.47112651 44.19394199 38.80371609 45.52685406 37.12115479 46.84007263 C36.62615479 47.83007263 36.62615479 47.83007263 36.12115479 48.84007263 C32.83280796 47.39809795 30.62304197 45.60883157 28.07110596 43.09642029 C27.28737106 42.32867279 26.50363617 41.56092529 25.69615173 40.76991272 C24.86058243 39.93970612 24.02501312 39.10949951 23.16412354 38.25413513 C22.3017659 37.40080597 21.43940826 36.54747681 20.55091858 35.66828918 C18.73184137 33.86371167 16.91555651 32.05631564 15.10186768 30.24632263 C12.31406064 27.47045534 9.50815387 24.71378092 6.70123291 21.95726013 C4.93771715 20.2032032 3.17530858 18.44803224 1.41412354 16.69163513 C0.56843307 15.86547699 -0.27725739 15.03931885 -1.14857483 14.18812561 C-1.91654892 13.41407379 -2.68452301 12.64002197 -3.47576904 11.84251404 C-4.50024895 10.82564011 -4.50024895 10.82564011 -5.54542542 9.78822327 C-6.87884521 7.84007263 -6.87884521 7.84007263 -6.70481873 5.73445129 C-5.38293834 2.70270517 -3.59837568 -0.30629386 0 0 Z " fill="#AFD4F2" transform="translate(457.87884521484375,245.15992736816406)"/>
<path d="M0 0 C3.31613882 1.44580966 5.49185728 3.24829792 8.03417969 5.80712891 C9.20494049 6.9781163 9.20494049 6.9781163 10.39935303 8.17276001 C11.23178528 9.01551483 12.06421753 9.85826965 12.921875 10.7265625 C13.78186096 11.58937836 14.64184692 12.45219421 15.52789307 13.34115601 C18.2733231 16.09778029 21.0117169 18.86127799 23.75 21.625 C25.61021783 23.49524857 27.47088946 25.36504589 29.33203125 27.234375 C33.89329945 31.8176936 38.44881011 36.40667478 43 41 C41.76302083 42.46484375 40.52604167 43.9296875 39.2890625 45.39453125 C38.10798901 46.8655046 37.04641471 48.43037794 36 50 C22.14 36.14 8.28 22.28 -6 8 C-4.21844267 4.43688534 -2.83236991 2.64354525 0 0 Z " fill="#CEDF9A" transform="translate(224,12)"/>
<path d="M0 0 C3.27196452 1.43258772 5.43203956 3.18825316 7.94238281 5.71533203 C9.08311249 6.8562883 9.08311249 6.8562883 10.24688721 8.02029419 C11.05744568 8.84117523 11.86800415 9.66205627 12.703125 10.5078125 C13.54091492 11.34843231 14.37870483 12.18905212 15.24188232 13.05514526 C17.91598431 15.74044001 20.58304724 18.43260655 23.25 21.125 C25.06204062 22.94707155 26.87453518 24.76869177 28.6875 26.58984375 C33.13028036 31.05467252 37.56730165 35.52516283 42 40 C39.33333333 42.66666667 36.66666667 45.33333333 34 48 C28.40659203 42.55843057 22.83661283 37.0937006 17.2824707 31.61206055 C15.38938149 29.74918798 13.4909483 27.89173018 11.5871582 26.03979492 C8.85513735 23.38036228 6.14278309 20.70219399 3.43359375 18.01953125 C2.57535507 17.19226028 1.71711639 16.36498932 0.83287048 15.51264954 C0.05198563 14.73221786 -0.72889923 13.95178619 -1.53344727 13.14770508 C-2.22849869 12.46597733 -2.92355011 11.78424957 -3.6396637 11.0818634 C-5 9 -5 9 -4.8455658 6.38529968 C-3.81100599 3.46685716 -2.31270773 2.01429383 0 0 Z " fill="#76B729" transform="translate(266,54)"/>
<path d="M0 0 C-1.44253657 3.36591866 -3.33264727 5.51047079 -6 8 C-5.62403791 5.21788056 -5.32681541 3.4120716 -3.5625 1.1875 C-2 0 -2 0 0 0 Z " fill="#6CB21C" transform="translate(267,55)"/>
</svg>
