<?xml version="1.0" encoding="UTF-8"?>
<svg version="1.1" xmlns="http://www.w3.org/2000/svg" width="800" height="415">
<path d="M0 0 C1.65155342 -0.0146228 1.65155342 -0.0146228 3.33647156 -0.02954102 C26.98181379 -0.1958255 50.00004594 -0.12171592 73.30078125 4.23828125 C74.35136719 4.42551758 75.40195312 4.61275391 76.484375 4.80566406 C106.89288231 10.30083439 137.11652189 19.34217894 164.30078125 34.23828125 C164.90809082 34.56538086 165.51540039 34.89248047 166.14111328 35.22949219 C174.30999353 39.64685028 181.97435329 44.52240426 189.30078125 50.23828125 C190.30109375 51.01042969 191.30140625 51.78257813 192.33203125 52.578125 C199.29640014 58.14434407 205.02057533 64.05676661 210.30078125 71.23828125 C211.05488281 72.25341797 211.05488281 72.25341797 211.82421875 73.2890625 C218.63869777 83.26298179 220.58539791 94.33591468 219.30078125 106.23828125 C218.41468348 109.88223386 217.11137807 112.96223263 215.30078125 116.23828125 C214.88828125 116.99496094 214.47578125 117.75164062 214.05078125 118.53125 C208.5269525 127.64870598 200.46808052 133.77964976 191.48828125 139.23828125 C190.85414307 139.62435547 190.22000488 140.01042969 189.56665039 140.40820312 C186.17713918 142.38933638 183.21355707 143.76129525 179.30078125 144.23828125 C179.48046875 141.9453125 179.48046875 141.9453125 180.30078125 139.23828125 C182.55859375 137.5 182.55859375 137.5 185.42578125 135.92578125 C192.57432795 131.63665323 198.31252192 126.52571112 200.86328125 118.36328125 C202.76301124 109.13602131 200.70927336 101.59807228 195.7109375 93.73828125 C171.7765299 61.35345913 119.62787144 50.18980256 82.44897461 44.50439453 C79.40187448 44.06260662 76.35304666 43.64275571 73.30078125 43.23828125 C72.4092334 43.1196875 71.51768555 43.00109375 70.59912109 42.87890625 C29.7791312 37.725603 -21.69339988 37.92440118 -56.69921875 62.23828125 C-63.07675162 67.44293451 -67.90183764 72.91541259 -69.14453125 81.2109375 C-69.7098107 91.52114321 -65.99868489 99.36472246 -59.69921875 107.36328125 C-54.46953999 112.90329259 -48.04159739 117.08740266 -41.69921875 121.23828125 C-40.6628125 121.91890625 -39.62640625 122.59953125 -38.55859375 123.30078125 C-29.91850115 128.57847328 -20.7480547 132.20279133 -11.31713867 135.82617188 C-10.27662354 136.22642578 -9.2361084 136.62667969 -8.1640625 137.0390625 C-7.23198975 137.39137939 -6.29991699 137.74369629 -5.33959961 138.10668945 C-0.61570635 140.13121514 3.45492165 142.83194846 7.30078125 146.23828125 C7.30078125 146.89828125 7.30078125 147.55828125 7.30078125 148.23828125 C-33.00784062 139.17447103 -80.75489027 119.82358623 -104.01171875 83.80078125 C-110.17270886 73.3428334 -113.0035731 62.57286923 -110.0078125 50.4375 C-103.38515443 32.62005592 -88.96497791 22.63903168 -72.57421875 14.55078125 C-50.10046022 4.26503197 -24.56865162 0.18043044 0 0 Z " fill="#FEFEFE" transform="translate(508.69921875,-0.23828125)"/>
<path d="M0 0 C12.51892442 10.22052814 19.26441335 24.68762207 21.8125 40.3828125 C22.18834287 46.13567806 22.16499985 51.85884011 22.10546875 57.62109375 C22.09985819 59.23918765 22.09559502 60.85728671 22.09260559 62.47538757 C22.0812715 66.68889994 22.05190616 70.90209113 22.01849365 75.11547852 C21.98208009 80.19511022 21.96857701 85.27485064 21.95113373 90.35457611 C21.92225923 98.03087677 21.86469368 105.70647582 21.8125 113.3828125 C9.2725 113.3828125 -3.2675 113.3828125 -16.1875 113.3828125 C-16.1875 110.4128125 -16.1875 107.4428125 -16.1875 104.3828125 C-17.26128906 104.93710937 -18.33507812 105.49140625 -19.44140625 106.0625 C-20.87743891 106.79459508 -22.31364618 107.52634773 -23.75 108.2578125 C-24.45447266 108.62261719 -25.15894531 108.98742187 -25.88476562 109.36328125 C-38.223864 115.61812374 -51.78809516 116.98212071 -65.1875 113.3828125 C-82.68671192 107.44557989 -97.42410235 96.82886708 -106.1875 80.3828125 C-106.65800781 79.52171875 -107.12851562 78.660625 -107.61328125 77.7734375 C-115.28751434 62.47024704 -116.10465027 45.31246868 -111.1875 29.08203125 C-108.53273462 21.65043475 -105.10423936 15.53646742 -100.1875 9.3828125 C-99.60355469 8.62355469 -99.01960937 7.86429688 -98.41796875 7.08203125 C-73.10619556 -23.77168807 -30.11816396 -22.26592836 0 0 Z M-67.2890625 28.1875 C-73.72327276 35.62788306 -76.12755949 43.28881218 -75.6328125 53.0546875 C-74.39245893 62.3246984 -70.54980391 68.61811522 -63.1875 74.3828125 C-54.79664173 79.54296598 -46.06374368 80.95723519 -36.35546875 78.734375 C-27.10075766 75.40779682 -22.31646583 69.4845761 -18.1328125 60.8125 C-14.90397906 52.51359753 -15.82447404 44.46676547 -19.1875 36.3828125 C-23.05278553 29.57942831 -28.7283279 24.19242112 -36.0078125 21.23828125 C-47.55469419 18.13168777 -58.61096281 19.98961136 -67.2890625 28.1875 Z " fill="#FEFEFE" transform="translate(778.1875,215.6171875)"/>
<path d="M0 0 C2.51869368 1.95814231 4.94415555 3.98465629 7.34765625 6.08203125 C7.96253906 6.60152344 8.57742187 7.12101562 9.2109375 7.65625 C22.20204673 19.51250372 28.17446367 36.03927157 29.60546875 53.16796875 C30.29497699 71.78469115 22.86075392 89.4697738 10.37109375 103.1015625 C-2.73882554 116.53385685 -21.24905257 123.72968976 -39.83984375 124.26953125 C-61.46450917 123.89924588 -78.69880507 115.2407745 -93.625 100.078125 C-105.96087689 86.65777542 -110.98313903 70.05524151 -110.65234375 52.08203125 C-109.23794977 32.83770101 -100.5874112 17.07127964 -86.65234375 4.08203125 C-83.4685778 1.43358878 -80.21940902 -0.81935499 -76.65234375 -2.91796875 C-75.88792969 -3.37558594 -75.12351563 -3.83320313 -74.3359375 -4.3046875 C-51.32817245 -16.92673982 -21.21033824 -15.33766727 0 0 Z M-64.65234375 35.08203125 C-70.36245166 42.59533113 -72.58657924 50.63957968 -71.65234375 60.08203125 C-69.42250899 70.67374636 -64.35686029 77.69119496 -55.65234375 84.08203125 C-48.25013602 88.17022304 -38.97347454 88.34111572 -30.87890625 86.42578125 C-21.87857899 83.21335675 -15.95707499 77.58224713 -11.5625 69.1953125 C-8.49006031 62.06145038 -8.50200498 52.87741939 -10.30078125 45.37890625 C-13.82109792 36.77368772 -20.36584672 30.1592519 -28.65234375 26.08203125 C-41.85906657 20.94608349 -55.20727483 24.81079791 -64.65234375 35.08203125 Z " fill="#FEFEFE" transform="translate(209.65234375,208.91796875)"/>
<path d="M0 0 C13.91302685 11.1220275 21.9205572 23.9339542 24.54077148 41.65795898 C25.34088425 49.16686344 25.12257128 56.74353 25.09765625 64.28515625 C25.09578821 65.95381121 25.09436613 67.62246673 25.09336853 69.29112244 C25.08957374 73.65580799 25.07976982 78.02045958 25.06866455 82.38513184 C25.05657323 87.63659717 25.05203371 92.88807394 25.04621124 98.13954926 C25.0365561 106.09305636 25.01737839 114.04648915 25 122 C12.13 122 -0.74 122 -14 122 C-14.03738281 116.32941406 -14.07476562 110.65882813 -14.11328125 104.81640625 C-14.14357793 101.21155887 -14.17473689 97.60675986 -14.20898438 94.00195312 C-14.26319259 88.28754184 -14.31430703 82.57322622 -14.34643555 76.85864258 C-14.37255573 72.24840541 -14.41301914 67.63849172 -14.46318626 63.02845573 C-14.47979625 61.27475971 -14.49134691 59.52100782 -14.49761391 57.76724434 C-13.98418116 43.16656455 -13.98418116 43.16656455 -20.25 30.625 C-25.9650352 27.24793375 -31.25565216 24.70904254 -38 26 C-43.65860686 28.07396903 -49.07654918 30.51852972 -52 36 C-54.75581204 44.92112733 -54.34896877 54.36702648 -54.4140625 63.6015625 C-54.43280371 65.2912182 -54.45237925 66.98086484 -54.4727478 68.67050171 C-54.52376345 73.08606586 -54.56355139 77.50166025 -54.60089111 81.9173584 C-54.64821592 87.23235298 -54.70968099 92.54720112 -54.76873779 97.86207581 C-54.85657674 105.90799042 -54.92660766 113.95388229 -55 122 C-67.54 122 -80.08 122 -93 122 C-93.12032643 102.88592408 -93.12032643 102.88592408 -93.14648438 94.65039062 C-93.16432096 89.06151637 -93.18527168 83.4727915 -93.22631836 77.8840332 C-93.2592503 73.3711847 -93.27692323 68.85849671 -93.28463173 64.34553719 C-93.29011523 62.63580872 -93.30082027 60.92608764 -93.31719017 59.21642876 C-93.49443205 39.91305943 -91.28108847 22.80905623 -77.27734375 8.24609375 C-76.52582031 7.50488281 -75.77429688 6.76367188 -75 6 C-74.36191406 5.35160156 -73.72382813 4.70320312 -73.06640625 4.03515625 C-53.90575981 -14.16944962 -21.0647747 -15.61638981 0 0 Z " fill="#FEFEFE" transform="translate(351,207)"/>
<path d="M0 0 C0 11.22 0 22.44 0 34 C-3.00353414 32.99882195 -6.00715345 31.99753169 -9 30.96484375 C-9.99 30.62582031 -10.98 30.28679687 -12 29.9375 C-12.99 29.59589844 -13.98 29.25429687 -15 28.90234375 C-22.7760798 26.56344475 -32.50773452 25.18470677 -40.1875 28.4375 C-42.82686846 29.73529475 -42.82686846 29.73529475 -44 31 C-44.58488562 33.37124598 -44.58488562 33.37124598 -44 36 C-38.8043073 40.37392498 -32.71974159 41.81490395 -26.3125 43.75 C-12.70329731 48.10144253 -3.20465683 53.07278717 4 66 C9.03072902 76.50863396 9.43410391 88.2454123 6.03125 99.3046875 C1.16245049 112.02995895 -7.31161946 119.2025029 -19.49609375 124.7734375 C-27.28077467 127.49850975 -34.9108405 128.36589397 -43.125 128.3125 C-44.0337085 128.30758545 -44.94241699 128.3026709 -45.87866211 128.29760742 C-59.27265856 128.06835882 -69.40692893 125.24711294 -82 120 C-82 107.79 -82 95.58 -82 83 C-77.5829383 84.4723539 -73.7731999 85.99118649 -69.625 88 C-61.63196357 91.68632726 -55.70523223 93.15490634 -46.875 93.3125 C-45.85249146 93.33932861 -45.85249146 93.33932861 -44.80932617 93.36669922 C-40.15623921 93.35876557 -36.88532563 92.58232009 -33 90 C-32.2308131 86.86831049 -32 84.2041293 -32 81 C-36.31691493 79.50870212 -40.63139369 78.08921887 -45.03125 76.86328125 C-58.87845853 72.9937057 -72.38488919 68.53910401 -79.96875 55.29296875 C-85.30748406 43.42237445 -85.3669101 31.1485469 -81 19 C-74.64012722 6.58861191 -64.48536024 -0.65784674 -51.61328125 -5.203125 C-34.52274588 -10.4145887 -16.00402748 -6.85886892 0 0 Z " fill="#FEFEFE" transform="translate(478,204)"/>
<path d="M0 0 C1.20317871 0.00249756 2.40635742 0.00499512 3.64599609 0.00756836 C5.15758301 0.01667236 6.66916992 0.02577637 8.2265625 0.03515625 C13.0528125 0.05578125 17.8790625 0.07640625 22.8515625 0.09765625 C22.8515625 11.97765625 22.8515625 23.85765625 22.8515625 36.09765625 C12.4765625 36.41015625 12.4765625 36.41015625 9.27197266 36.4855957 C-0.5381887 36.85968889 -10.18072346 38.64994414 -17.1484375 46.09765625 C-21.50391737 52.95591187 -24.14354228 59.89144974 -23.1484375 68.09765625 C-20.93975379 76.26864159 -18.33627791 82.35817405 -10.8984375 86.78515625 C-3.38704129 90.99318296 4.44430449 91.44338493 12.8515625 91.72265625 C17.8015625 91.90828125 17.8015625 91.90828125 22.8515625 92.09765625 C22.8515625 103.97765625 22.8515625 115.85765625 22.8515625 128.09765625 C-22.28475526 128.74246079 -22.28475526 128.74246079 -40.6484375 112.66015625 C-42.17161436 111.16253605 -43.67287944 109.64221523 -45.1484375 108.09765625 C-45.86515625 107.38867188 -46.581875 106.6796875 -47.3203125 105.94921875 C-58.56065808 94.24404685 -62.74114816 79.63358182 -62.5859375 63.72265625 C-62.57763916 62.62284424 -62.56934082 61.52303223 -62.56079102 60.38989258 C-62.39215396 52.2875121 -61.64306553 45.50668746 -58.1484375 38.09765625 C-57.70886719 37.12570313 -57.26929688 36.15375 -56.81640625 35.15234375 C-48.9034531 19.80722447 -34.92075131 8.37023891 -18.7734375 2.72265625 C-12.47756348 0.72809561 -6.60370724 -0.02822097 0 0 Z " fill="#FEFEFE" transform="translate(62.1484375,200.90234375)"/>
<path d="M0 0 C4.7025 0.061875 9.405 0.12375 14.25 0.1875 C14.25 12.0675 14.25 23.9475 14.25 36.1875 C10.846875 36.27 7.44375 36.3525 3.9375 36.4375 C-7.30531646 36.87968402 -16.70608874 38.06660383 -25.08984375 46.2265625 C-30.58730898 52.72003907 -31.4663997 59.36949927 -31.1953125 67.74609375 C-30.30295489 74.64229595 -27.47212956 79.91907226 -22.375 84.625 C-16.16887226 89.40102005 -9.41720252 91.17111707 -1.66796875 91.50390625 C-0.8277417 91.54201416 0.01248535 91.58012207 0.87817383 91.61938477 C1.92900146 91.66248779 2.9798291 91.70559082 4.0625 91.75 C7.424375 91.894375 10.78625 92.03875 14.25 92.1875 C14.25 104.0675 14.25 115.9475 14.25 128.1875 C-10.7040398 128.54398628 -31.1761218 128.60393671 -50.75 111.1875 C-51.36230469 110.65640625 -51.97460938 110.1253125 -52.60546875 109.578125 C-62.4904743 100.41321919 -70.00501425 86.34196848 -70.91113281 72.77490234 C-71.2852779 50.48716674 -71.2852779 50.48716674 -67.75 42.1875 C-67.29753906 41.08535156 -66.84507812 39.98320312 -66.37890625 38.84765625 C-58.74683061 21.99120141 -45.09964037 9.74033898 -27.75 3.1875 C-18.47053298 0.12351687 -9.7069631 -0.1819653 0 0 Z " fill="#FEFEFE" transform="translate(569.75,200.8125)"/>
<path d="M0 0 C12.54 0 25.08 0 38 0 C38 42.57 38 85.14 38 129 C25.46 129 12.92 129 0 129 C0 86.43 0 43.86 0 0 Z " fill="#FEFEFE" transform="translate(606,200)"/>
<path d="M0 0 C28.63325134 -0.75118098 62.59411395 6.03874358 84.84375 25.05859375 C90.352312 30.46654275 94.68664798 36.44014327 95.09375 44.37109375 C94.21496831 50.96195645 91.55624287 54.80588256 86.59375 59.12109375 C82.05319576 62.52238165 78.29837175 65.27745251 72.59375 66.12109375 C73.76303739 62.61323158 74.37183845 62.4135535 77.46875 60.68359375 C81.7661381 58.10054831 83.88642178 56.19592319 85.53125 51.37109375 C85.63242776 46.10985048 83.68798798 42.31735871 80.0703125 38.5234375 C59.59480256 21.7585549 27.19318671 18.33232052 1.8203125 20.43359375 C-10.13051662 21.8134833 -23.20792534 23.71897943 -32.40625 32.12109375 C-34.86013459 35.51322833 -35.37716101 37.33569093 -35.53125 41.49609375 C-32.91132544 49.93807288 -26.28107402 54.3719829 -18.8203125 58.52734375 C-13.84369953 60.85052235 -8.74171656 62.39793086 -3.4609375 63.8828125 C-0.40625 65.12109375 -0.40625 65.12109375 1.0234375 67.265625 C1.21164062 67.87792969 1.39984375 68.49023438 1.59375 69.12109375 C-18.42792087 64.78261594 -40.46316863 57.75850833 -52.78125 40.15625 C-55.5725327 35.26181332 -56.33278223 30.68028711 -55.40625 25.12109375 C-53.12728472 17.00133667 -46.9945968 12.81132966 -40.0078125 8.71484375 C-27.7919532 2.55053321 -13.5067255 0.67972158 0 0 Z " fill="#FEFEFE" transform="translate(583.40625,88.87890625)"/>
<path d="M0 0 C5.8856282 3.7351102 8.40075735 8.21802654 10 15 C10.46705549 21.1931558 9.07144142 26.15830796 5.53125 31.2421875 C1.7350083 35.60011803 -2.82828758 38.76200715 -8.70703125 39.203125 C-16.25915745 39.31711936 -20.74866604 38.78685768 -26.625 33.75 C-31.81578176 27.73962112 -33.71004452 23.66658187 -33.3828125 15.71484375 C-32.57054778 9.95439497 -30.27459507 6.30356314 -26.25 2.1875 C-17.65868614 -3.5951151 -9.42363793 -4.72141534 0 0 Z " fill="#FEFEFE" transform="translate(637,149)"/>
<path d="M0 0 C3.625 -0.1875 3.625 -0.1875 7 0 C7 1.32 7 2.64 7 4 C5.02 4 3.04 4 1 4 C1.495 4.474375 1.99 4.94875 2.5 5.4375 C4.72955843 9.24632898 4.79050395 12.69443964 4 17 C2.0625 20 2.0625 20 -1 22 C-3.36086141 22.50473589 -5.60117063 22.74593744 -8.01171875 22.859375 C-10.07461348 22.87772475 -10.07461348 22.87772475 -12 24 C-12 24.66 -12 25.32 -12 26 C-11.03578125 26.04898437 -10.0715625 26.09796875 -9.078125 26.1484375 C-7.81484375 26.22320312 -6.5515625 26.29796875 -5.25 26.375 C-3.99703125 26.44460938 -2.7440625 26.51421875 -1.453125 26.5859375 C1.63035183 26.95567567 3.44203306 27.31922556 6 29 C7.92199114 31.56265486 8.01028636 32.83198949 7.8125 36.0625 C6.98082873 39.06931151 6.47771236 40.18936404 4 42 C0.4267532 43.19108227 -2.60836941 43.27879922 -6.375 43.375 C-7.68210937 43.42398438 -8.98921875 43.47296875 -10.3359375 43.5234375 C-14.85033572 42.87852347 -16.28359777 41.59384744 -19 38 C-18.92093582 34.04679076 -18.20236257 32.30354385 -16 29 C-16.185625 28.38125 -16.37125 27.7625 -16.5625 27.125 C-17 25 -17 25 -15.5625 22.25 C-14.7890625 21.13625 -14.7890625 21.13625 -14 20 C-14.495 19.484375 -14.99 18.96875 -15.5 18.4375 C-17.57700386 15.06236872 -17.47919182 12.90199054 -17 9 C-15.20437595 6.24670979 -13.94745078 4.47372539 -11 3 C-8.69063671 3.00861703 -6.39944225 3.13055027 -4.09375 3.2578125 C-3.05734375 3.13019531 -3.05734375 3.13019531 -2 3 C-1.34 2.01 -0.68 1.02 0 0 Z M-12 8 C-12.08096803 9.45742463 -12.13917774 10.91612807 -12.1875 12.375 C-12.22230469 13.18710937 -12.25710938 13.99921875 -12.29296875 14.8359375 C-12.19628906 15.55007813 -12.09960938 16.26421875 -12 17 C-9.10420618 19.37222995 -9.10420618 19.37222995 -5.4375 18.75 C-1.95407388 18.3141556 -1.95407388 18.3141556 0 16 C0.34490322 11.94738713 0.30163882 10.45245824 -2 7 C-6.19807578 5.81358728 -8.25184092 5.8987593 -12 8 Z M-13.875 32.515625 C-14.24625 33.00546875 -14.6175 33.4953125 -15 34 C-14.21869929 36.49552484 -14.21869929 36.49552484 -13 39 C-8.20863728 40.59712091 -3.74150731 40.58050244 1 39 C1.66 38.67 2.32 38.34 3 38 C3 36.02 3 34.04 3 32 C-0.19306305 30.93564565 -2.64443996 30.79934647 -6 30.75 C-7.051875 30.72421875 -8.10375 30.6984375 -9.1875 30.671875 C-12.03210194 30.74989095 -12.03210194 30.74989095 -13.875 32.515625 Z " fill="#FEFEFE" transform="translate(633,372)"/>
<path d="M0 0 C1.65 0 3.3 0 5 0 C6.76666278 2.19157112 8.06440843 4.13439831 9.42578125 6.5625 C10.01446236 7.56132202 10.01446236 7.56132202 10.61503601 8.58032227 C11.86513679 10.71048988 13.08883143 12.85456029 14.3125 15 C15.15520539 16.44630182 15.99958691 17.89162843 16.84570312 19.3359375 C18.92014724 22.87816789 20.95822295 26.43802134 23 30 C23.33 20.1 23.66 10.2 24 0 C25.32 0 26.64 0 28 0 C28 12.87 28 25.74 28 39 C26.35 39 24.7 39 23 39 C21.42333984 37.40258789 21.42333984 37.40258789 20.0859375 35.16015625 C19.58288086 34.33789551 19.07982422 33.51563477 18.56152344 32.66845703 C18.0462207 31.78786621 17.53091797 30.90727539 17 30 C16.47180664 29.13616699 15.94361328 28.27233398 15.39941406 27.38232422 C13.78846049 24.74510823 12.20385585 22.09406176 10.625 19.4375 C7.840625 14.7659375 7.840625 14.7659375 5 10 C4.67 19.57 4.34 29.14 4 39 C2.68 39 1.36 39 0 39 C0 26.13 0 13.26 0 0 Z " fill="#FEFEFE" transform="translate(157,365)"/>
<path d="M0 0 C1.32 0 2.64 0 4 0 C5.98 6.93 7.96 13.86 10 21 C12.31 14.07 14.62 7.14 17 0 C18.32 0 19.64 0 21 0 C21.26478149 0.85549438 21.26478149 0.85549438 21.53491211 1.72827148 C22.33255199 4.2990273 23.13495994 6.86826993 23.9375 9.4375 C24.35418945 10.78424805 24.35418945 10.78424805 24.77929688 12.15820312 C25.04677734 13.01220703 25.31425781 13.86621094 25.58984375 14.74609375 C25.83597412 15.53685303 26.08210449 16.3276123 26.33569336 17.14233398 C26.84686051 18.98943308 26.84686051 18.98943308 28 20 C28.21934204 19.19780029 28.21934204 19.19780029 28.44311523 18.37939453 C29.10575521 15.96066661 29.77158806 13.54282904 30.4375 11.125 C30.66759766 10.28324219 30.89769531 9.44148438 31.13476562 8.57421875 C31.46831055 7.36572266 31.46831055 7.36572266 31.80859375 6.1328125 C32.01282959 5.38918457 32.21706543 4.64555664 32.42749023 3.87939453 C33 2 33 2 34 0 C35.32 0 36.64 0 38 0 C36.82402609 6.6282166 35.22864603 13.07848728 33.4375 19.5625 C33.21553955 20.37251465 32.9935791 21.1825293 32.76489258 22.01708984 C31.12458697 27.87541303 31.12458697 27.87541303 30 29 C28.35 29 26.7 29 25 29 C23.02 22.73 21.04 16.46 19 10 C17.02 16.27 15.04 22.54 13 29 C11.35 29 9.7 29 8 29 C5.8675039 23.47176964 3.98332094 17.93381986 2.3125 12.25 C2.08755859 11.50878906 1.86261719 10.76757812 1.63085938 10.00390625 C0.595154 6.49698895 0 3.68650077 0 0 Z " fill="#FEFEFE" transform="translate(505,375)"/>
<path d="M0 0 C2.475 0.495 2.475 0.495 5 1 C6.98 7.6 8.96 14.2 11 21 C12.81326031 14.4681352 12.81326031 14.4681352 14.58886719 7.92602539 C14.93933105 6.71160767 14.93933105 6.71160767 15.296875 5.47265625 C15.52729492 4.64000244 15.75771484 3.80734863 15.99511719 2.94946289 C17 1 17 1 19.10644531 0.22045898 C19.73131836 0.14770752 20.35619141 0.07495605 21 0 C23.7047418 6.89709158 25.85761818 13.90797742 28 21 C29.98 14.07 31.96 7.14 34 0 C35.32 0 36.64 0 38 0 C37.3850185 6.60132039 35.82360905 12.65462154 33.9375 19 C33.65583984 19.96550781 33.37417969 20.93101562 33.08398438 21.92578125 C32.39475721 24.28550816 31.69999989 26.64345085 31 29 C29.35 29 27.7 29 26 29 C23.94822285 23.72400163 22.19495414 18.44997292 20.6484375 13.00390625 C20.1756534 11.02396512 20.1756534 11.02396512 19 10 C17.02 16.27 15.04 22.54 13 29 C11.35 29 9.7 29 8 29 C6.85067458 25.10518824 5.70615396 21.20898052 4.5625 17.3125 C4.23701172 16.20970703 3.91152344 15.10691406 3.57617188 13.97070312 C3.26357422 12.90400391 2.95097656 11.83730469 2.62890625 10.73828125 C2.34088135 9.75899658 2.05285645 8.77971191 1.75610352 7.77075195 C1.05242507 5.19211241 0.48849151 2.62695222 0 0 Z " fill="#FEFEFE" transform="translate(235,375)"/>
<path d="M0 0 C1.65 0 3.3 0 5 0 C5.33 6.27 5.66 12.54 6 19 C7.8975 16.793125 9.795 14.58625 11.75 12.3125 C12.63510254 11.28443237 12.63510254 11.28443237 13.53808594 10.2355957 C14.01536133 9.67960693 14.49263672 9.12361816 14.984375 8.55078125 C15.50290039 7.94790283 16.02142578 7.34502441 16.55566406 6.72387695 C17.82479231 5.2091179 19.02769678 3.63938736 20.21875 2.0625 C22 0 22 0 24.75 -0.3125 C25.86375 -0.1578125 25.86375 -0.1578125 27 0 C25.01811591 4.68937601 21.48657671 7.85149578 17.99609375 11.46484375 C15.80154056 14.25205514 14.89968567 15.45204043 15 19 C16.4926399 21.56510754 17.94684542 23.73958364 19.75 26.0625 C20.20632813 26.67416016 20.66265625 27.28582031 21.1328125 27.91601562 C22.9973141 30.40830461 24.89583295 32.86845572 26.828125 35.30859375 C28 37 28 37 28 39 C25.75 39.31640625 25.75 39.31640625 23 39 C20.9375 36.83984375 20.9375 36.83984375 19 33.9375 C17.9790625 32.44089844 17.9790625 32.44089844 16.9375 30.9140625 C16.298125 29.95242188 15.65875 28.99078125 15 28 C14.00604226 26.59985761 13.00721149 25.2031386 12 23.8125 C11.34 22.884375 10.68 21.95625 10 21 C6.98126522 23.39083795 6.07150347 24.59481364 5.390625 28.453125 C5.34421875 29.70609375 5.2978125 30.9590625 5.25 32.25 C5.19328125 33.51328125 5.1365625 34.7765625 5.078125 36.078125 C5.05234375 37.04234375 5.0265625 38.0065625 5 39 C3.35 39 1.7 39 0 39 C0 26.13 0 13.26 0 0 Z " fill="#FEFEFE" transform="translate(419,365)"/>
<path d="M0 0 C1.32 0 2.64 0 4 0 C4 13.53 4 27.06 4 41 C2.68 41 1.36 41 0 41 C-0.33 40.34 -0.66 39.68 -1 39 C-1.99 39.7734375 -1.99 39.7734375 -3 40.5625 C-6.87778101 42.4206034 -9.99608328 42.34272763 -14 41 C-17.1786241 38.4300486 -18.70728109 36.87815673 -20 33 C-21.00676527 20.63824289 -21.00676527 20.63824289 -18.1875 16.3125 C-15.90699257 13.90167786 -14.22412506 12.15079801 -10.84375 11.734375 C-9.68359375 11.74210937 -9.68359375 11.74210937 -8.5 11.75 C-7.7265625 11.74484375 -6.953125 11.7396875 -6.15625 11.734375 C-4 12 -4 12 -1 14 C-0.67 9.38 -0.34 4.76 0 0 Z M-13.9375 17.3125 C-16.60767186 21.55336118 -16.48439687 26.16452944 -16 31 C-14.37599816 34.63467079 -13.33886956 35.77408696 -10 38 C-5.18330691 37.89493842 -5.18330691 37.89493842 -1.30859375 35.3515625 C0.40332697 32.27521541 0.43347797 30.00720756 0.4375 26.5 C0.45683594 25.3759375 0.47617187 24.251875 0.49609375 23.09375 C-0.10080953 19.37132956 -0.97904029 18.19947067 -4 16 C-7.47855502 15.15206049 -10.90632417 15.25912282 -13.9375 17.3125 Z " fill="#FEFEFE" transform="translate(606,363)"/>
<path d="M0 0 C3.49996383 2.04164557 5.80555258 4.09089936 7 8 C7 10.64 7 13.28 7 16 C0.4 16 -6.2 16 -13 16 C-11.80349281 22.55571434 -11.80349281 22.55571434 -9.3125 24.5 C-5.90153426 25.2375061 -3.37467954 24.84366989 0 24 C2.420113 22.08378425 2.420113 22.08378425 4 20 C4.66 20.33 5.32 20.66 6 21 C5.9375 23.25 5.9375 23.25 5 26 C1.14830488 29.04925864 -1.62360249 30.36299382 -6.5625 30.1875 C-10.9297177 29.4260364 -13.29321044 27.70292703 -15.90234375 24.15625 C-18.60975453 18.83777757 -18.68735619 13.25063742 -16.875 7.625 C-13.40755877 0.01204014 -7.85917972 -1.29262824 0 0 Z M-11.5 6.3125 C-13.24368308 8.92363751 -13.24368308 8.92363751 -13 12 C-7.72 12 -2.44 12 3 12 C1.59628479 6.2981424 1.59628479 6.2981424 -1 4 C-6.85258149 3.20508355 -6.85258149 3.20508355 -11.5 6.3125 Z " fill="#FEFEFE" transform="translate(659,375)"/>
<path d="M0 0 C3.67328088 1.80945971 5.66482095 4.26870026 7.375 8 C8 11 8 11 8 16 C1.07 16 -5.86 16 -13 16 C-10.81940167 22.84825895 -10.81940167 22.84825895 -7 25 C-4.70285813 25.02639829 -4.70285813 25.02639829 -2.3125 24.625 C-1.50425781 24.51414062 -0.69601563 24.40328125 0.13671875 24.2890625 C0.75160156 24.19367188 1.36648437 24.09828125 2 24 C2.33 22.68 2.66 21.36 3 20 C4.32 20.33 5.64 20.66 7 21 C6.68656398 23.92540283 5.98672635 25.01407811 3.9375 27.1875 C0.26632662 29.45269209 -2.69556588 30.21944174 -7 30 C-11.20612545 28.49214371 -13.7116104 26.85412986 -16 23 C-17.70968538 17.87094387 -18.01106648 11.95985784 -16.24609375 6.79296875 C-12.60067203 0.00247731 -7.23850384 -1.21687153 0 0 Z M-7.75 3.375 C-10.84677426 5.31798696 -10.84677426 5.31798696 -13 12 C-7.72 12 -2.44 12 3 12 C2.67 10.02 2.34 8.04 2 6 C-1.46675223 3.86661401 -3.67024539 2.81866983 -7.75 3.375 Z " fill="#FEFEFE" transform="translate(208,375)"/>
<path d="M0 0 C3.5544915 1.39088798 4.71251242 2.56381194 6.8125 5.75 C8 9 8 9 8 16 C1.4 16 -5.2 16 -12 16 C-10.80349281 22.55571434 -10.80349281 22.55571434 -8.3125 24.5 C-4.90153426 25.2375061 -2.37467954 24.84366989 1 24 C3.420113 22.08378425 3.420113 22.08378425 5 20 C5.66 20.33 6.32 20.66 7 21 C6.63644809 23.5448634 5.96332668 25.05348193 4.5 27.1875 C0.85680704 29.8288149 -2.55193627 30.19305832 -7 30 C-10.76327622 28.74557459 -12.45074541 27.73865273 -14.8125 24.5625 C-17.51296971 18.73517062 -17.80755446 13.50766911 -15.8125 7.3125 C-11.96613678 0.28293964 -7.63989067 -1.12514754 0 0 Z M-10.5 5.75 C-12.36980013 8.10400629 -12.36980013 8.10400629 -12 12 C-6.72 12 -1.44 12 4 12 C2.46687233 7.68391204 2.46687233 7.68391204 0 4 C-5.62481087 3.41555445 -5.62481087 3.41555445 -10.5 5.75 Z " fill="#FEFEFE" transform="translate(574,375)"/>
<path d="M0 0 C1.32 0 2.64 0 4 0 C4.33 7.92 4.66 15.84 5 24 C8.78045629 20.06162469 8.78045629 20.06162469 12.53808594 16.1015625 C13.9517235 14.65833496 15.47621316 13.32640513 17 12 C18.32 12 19.64 12 21 12 C19.59155282 15.21524305 17.89655214 17.32183868 15.375 19.75 C14.74335938 20.36359375 14.11171875 20.9771875 13.4609375 21.609375 C12.97882813 22.06828125 12.49671875 22.5271875 12 23 C13.46585492 27.34923988 15.8227647 30.67715 18.625 34.25 C23 39.88650307 23 39.88650307 23 41 C20.7578125 41.30078125 20.7578125 41.30078125 18 41 C15.8671875 38.91796875 15.8671875 38.91796875 13.875 36.1875 C10.6846846 31.87720664 10.6846846 31.87720664 7 28 C4.41073669 30.58926331 4.62601957 32.02705279 4.375 35.625 C4.30023438 36.62789063 4.22546875 37.63078125 4.1484375 38.6640625 C4.09945313 39.43492187 4.05046875 40.20578125 4 41 C2.68 41 1.36 41 0 41 C0 27.47 0 13.94 0 0 Z " fill="#FEFEFE" transform="translate(324,363)"/>
<path d="M0 0 C3.40898103 1.3339491 4.67203925 2.54764035 6.8125 5.5 C8.87040724 11.56541082 8.90654996 17.46166011 6.75 23.5 C3.84342682 27.6522474 2.14147488 28.74224761 -2.875 29.875 C-6.99866308 30.25127466 -9.52652173 29.34257837 -13 27 C-17.20526578 22.35970673 -17.34085319 17.75369458 -17.28515625 11.73046875 C-16.79128244 7.00145791 -14.36668266 4.51853629 -11.3125 1.125 C-7.61039159 -0.67602571 -4.03363561 -0.51953804 0 0 Z M-10.375 5.4375 C-13.35612886 10.13851089 -13.36982203 15.00296103 -12.375 20.375 C-10.66545357 23.63867954 -9.43160121 24.67415408 -6 26 C-2.78675815 25.87147033 -0.80470008 25.58271385 1.8125 23.6875 C4.53004314 19.82572817 4.31696113 15.5959364 4 11 C2.41772398 6.69156076 2.41772398 6.69156076 -1 4 C-4.73671591 3.65400779 -7.11909553 3.46682098 -10.375 5.4375 Z " fill="#FEFEFE" transform="translate(495,375)"/>
<path d="M0 0 C3.29726281 1.68697167 5.4011527 4.04728839 7.375 7.1875 C8.63824771 12.87211469 9.08320411 18.62264943 6.375 23.9375 C3.70279833 27.38323374 2.16033627 28.71989653 -2 30 C-6.26301893 30.1926315 -9.22268619 29.47314753 -12.875 27.25 C-17.21282233 22.65701165 -17.43494136 17.79761078 -17.3203125 11.73046875 C-16.82987305 7.54977153 -15.55792812 5.33951727 -13 2 C-8.83814112 -0.57721805 -4.7656709 -0.80942071 0 0 Z M-10.9375 5.25 C-13.48139649 9.43994716 -13.54412873 14.19830265 -13 19 C-11.36312815 22.58552881 -10.31027417 23.79315055 -7 26 C-2.40929652 25.77008922 -2.40929652 25.77008922 1.69140625 23.8828125 C3.68945281 21.00801119 3.4338735 18.51855247 3.4375 15.0625 C3.45683594 13.83660156 3.47617187 12.61070312 3.49609375 11.34765625 C3.26074851 7.96071047 3.26074851 7.96071047 1.2265625 5.5859375 C-2.51657638 2.91977191 -6.92875166 2.66371075 -10.9375 5.25 Z " fill="#FEFEFE" transform="translate(378,375)"/>
<path d="M0 0 C4.07295871 2.07350625 6.37200653 3.74217093 8 8 C8.64976949 13.8479254 8.8009249 19.21332138 6.375 24.625 C3.22157461 27.77842539 0.59513653 29.8317495 -3.98828125 30.12890625 C-7.9034212 29.88559247 -9.72154419 29.21792194 -12.875 26.75 C-17.01275038 21.39526421 -17.75092522 16.64099489 -17 10 C-13.98544751 1.59098515 -8.64518699 -1.52203996 0 0 Z M-12 8 C-12.59497447 11.13224537 -12.59497447 11.13224537 -12.4375 14.5 C-12.43621094 15.6240625 -12.43492187 16.748125 -12.43359375 17.90625 C-11.96503432 21.24948485 -11.39694423 22.65854059 -9 25 C-5.57109774 25.87281149 -3.10740423 26.32922829 0.3125 25.3125 C3.00287255 23.21998802 3.88106412 20.94994241 4.30078125 17.59765625 C4.32401634 12.57113252 4.29320622 9.08357571 1 5 C-0.8503199 3.1496801 -3.42472082 3.70859868 -5.89453125 3.57421875 C-9.01878189 4.20602454 -10.12111896 5.46018515 -12 8 Z " fill="#FEFEFE" transform="translate(292,375)"/>
<path d="M0 0 C1.32 0 2.64 0 4 0 C4.33 0.66 4.66 1.32 5 2 C5.99 1.34 6.98 0.68 8 0 C14.94677871 -0.67226891 14.94677871 -0.67226891 18.9375 1.875 C22.0609722 5.09312288 22.12171043 6.84870089 22.09765625 11.2265625 C22.09443359 12.2578125 22.09121094 13.2890625 22.08789062 14.3515625 C22.07951172 15.43179687 22.07113281 16.51203125 22.0625 17.625 C22.05798828 18.71296875 22.05347656 19.8009375 22.04882812 20.921875 C22.03701776 23.61463789 22.02054778 26.30729188 22 29 C20.68 29 19.36 29 18 29 C17.98018066 28.41508789 17.96036133 27.83017578 17.93994141 27.22753906 C17.84446519 24.56791975 17.73487858 21.90906162 17.625 19.25 C17.5940625 18.32960938 17.563125 17.40921875 17.53125 16.4609375 C17.49257813 15.57148438 17.45390625 14.68203125 17.4140625 13.765625 C17.36693115 12.54020996 17.36693115 12.54020996 17.31884766 11.29003906 C16.97656307 8.83167042 16.2260723 7.14240001 15 5 C13.72125 4.938125 12.4425 4.87625 11.125 4.8125 C10.04605469 4.76029297 10.04605469 4.76029297 8.9453125 4.70703125 C8.30335938 4.80371094 7.66140625 4.90039062 7 5 C4.87719437 8.18420845 4.71980463 9.20537255 4.5859375 12.88671875 C4.54726563 13.82451172 4.50859375 14.76230469 4.46875 15.72851562 C4.4378125 16.70498047 4.406875 17.68144531 4.375 18.6875 C4.33632813 19.67556641 4.29765625 20.66363281 4.2578125 21.68164062 C4.16354133 24.12090707 4.07793782 26.56016595 4 29 C2.68 29 1.36 29 0 29 C0 19.43 0 9.86 0 0 Z " fill="#FEFEFE" transform="translate(451,375)"/>
<path d="M0 0 C0 1.32 0 2.64 0 4 C-2.31 4 -4.62 4 -7 4 C-7 6.64 -7 9.28 -7 12 C-4.69 12 -2.38 12 0 12 C0 13.32 0 14.64 0 16 C-2.31 16 -4.62 16 -7 16 C-7 24.25 -7 32.5 -7 41 C-8.32 41 -9.64 41 -11 41 C-11 32.75 -11 24.5 -11 16 C-12.65 16 -14.3 16 -16 16 C-16 14.68 -16 13.36 -16 12 C-14.35 12 -12.7 12 -11 12 C-11.03480469 11.38511719 -11.06960938 10.77023437 -11.10546875 10.13671875 C-11.13253906 9.32847656 -11.15960938 8.52023437 -11.1875 7.6875 C-11.22230469 6.88699219 -11.25710938 6.08648437 -11.29296875 5.26171875 C-11 3 -11 3 -9.75 1.21875 C-6.66322536 -0.93096805 -3.66205194 -0.18010091 0 0 Z " fill="#FEFEFE" transform="translate(403,363)"/>
<path d="M0 0 C1.32 0 2.64 0 4 0 C4 2.31 4 4.62 4 7 C6.31 7 8.62 7 11 7 C11 8.32 11 9.64 11 11 C8.69 11 6.38 11 4 11 C4 17.93 4 24.86 4 32 C5.98 32 7.96 32 10 32 C10 33.32 10 34.64 10 36 C3.9453125 36.1953125 3.9453125 36.1953125 2 36 C0 34 0 34 -0.22705078 31.66162109 C-0.21134033 30.23197021 -0.21134033 30.23197021 -0.1953125 28.7734375 C-0.18564453 27.2265625 -0.18564453 27.2265625 -0.17578125 25.6484375 C-0.15902344 24.56820313 -0.14226562 23.48796875 -0.125 22.375 C-0.11597656 21.28703125 -0.10695312 20.1990625 -0.09765625 19.078125 C-0.07403409 16.38519848 -0.04109556 13.69270745 0 11 C-1.65 11 -3.3 11 -5 11 C-5 9.68 -5 8.36 -5 7 C-3.35 7 -1.7 7 0 7 C0 4.69 0 2.38 0 0 Z " fill="#FEFEFE" transform="translate(222,368)"/>
<path d="M0 0 C1.32 0 2.64 0 4 0 C4 12.21 4 24.42 4 37 C5.65 37 7.3 37 9 37 C9 38.32 9 39.64 9 41 C5.625 41.125 5.625 41.125 2 41 C0 39 0 39 -0.22705078 35.19287109 C-0.22673346 33.5530258 -0.21539681 31.91315983 -0.1953125 30.2734375 C-0.1924826 29.41062164 -0.18965271 28.54780579 -0.18673706 27.65884399 C-0.17552333 24.8974228 -0.15041684 22.1363235 -0.125 19.375 C-0.11497173 17.50521301 -0.10584562 15.63542095 -0.09765625 13.765625 C-0.07558012 9.17695891 -0.04104234 4.58853407 0 0 Z " fill="#FEFEFE" transform="translate(547,363)"/>
<path d="M0 0 C1.32 0 2.64 0 4 0 C4.33 0.66 4.66 1.32 5 2 C5.556875 1.67 6.11375 1.34 6.6875 1 C9.30284522 -0.1309601 11.1806646 -0.15662974 14 0 C14 1.65 14 3.3 14 5 C11.03 5.66 8.06 6.32 5 7 C4.67 14.26 4.34 21.52 4 29 C2.68 29 1.36 29 0 29 C0 19.43 0 9.86 0 0 Z " fill="#FEFEFE" transform="translate(306,375)"/>
</svg>
