<?xml version="1.0" encoding="UTF-8"?>
<svg version="1.1" xmlns="http://www.w3.org/2000/svg" width="500" height="138">
<path d="M0 0 C2 1 2 1 3.0078125 3.703125 C3.37648438 4.87359375 3.74515625 6.0440625 4.125 7.25 C7.83306118 18.2274414 13.8605675 27.16820935 21.76171875 35.6015625 C27.88939985 42.16769897 32.88551765 48.51713359 36 57 C36.268125 56.38125 36.53625 55.7625 36.8125 55.125 C38 53 38 53 41 51 C44.31222269 50.54488543 47.59944204 50.21667811 50.93164062 49.96484375 C57.06260623 49.3569089 61.00276151 47.22549432 65.1875 42.5625 C67.04652908 40.00227665 67.04652908 40.00227665 68.6875 37.1875 C69.120625 36.465625 69.55375 35.74375 70 35 C70.33 35 70.66 35 71 35 C73.39483508 61.51424557 73.29538995 92.60712736 55.38671875 114.2578125 C43.80971612 127.59252691 29.39895012 136.70289624 11.47949219 138.31713867 C7.73048917 138.47280402 4.00215002 138.5186128 0.25 138.5 C-0.40786499 138.49856995 -1.06572998 138.49713989 -1.74353027 138.4956665 C-21.82195846 138.38771797 -36.76482613 132.37944928 -51 118 C-64.2504535 103.73439079 -70.21801773 84.0544587 -70.09765625 64.8828125 C-70.0962413 64.02565643 -70.09482635 63.16850037 -70.09336853 62.28536987 C-70.08780022 59.5652101 -70.07525364 56.84513462 -70.0625 54.125 C-70.0574809 52.27343869 -70.05291871 50.42187609 -70.04882812 48.5703125 C-70.03784117 44.04684285 -70.02059852 39.52343568 -70 35 C-67.46645752 36.26677124 -67.30198565 37.25629673 -66.1875 39.8125 C-63.88224869 44.56761248 -61.26056627 46.95242051 -56.4375 49.1875 C-53.176587 49.95826126 -50.27323772 50.19104388 -46.9375 50.375 C-42.11829271 50.7038541 -39.32141407 51.22045985 -36 55 C-35.67 55.66 -35.34 56.32 -35 57 C-34.78085937 56.443125 -34.56171875 55.88625 -34.3359375 55.3125 C-31.92599861 49.51297227 -28.996211 44.82757404 -25 40 C-24.38253906 39.24847656 -23.76507813 38.49695312 -23.12890625 37.72265625 C-19.61115843 33.56132879 -19.61115843 33.56132879 -18 32 C-17.34 32 -16.68 32 -16 32 C-15.62294922 31.20916016 -15.62294922 31.20916016 -15.23828125 30.40234375 C-13.9927879 27.98600808 -12.62347161 25.66365486 -11.23266602 23.32885742 C-7.4109392 16.8700409 -4.4315538 10.53477322 -1.91015625 3.44921875 C-1 1 -1 1 0 0 Z M0 22 C-0.23074219 23.16015625 -0.46148437 24.3203125 -0.69921875 25.515625 C-4.33571897 43.20275732 -10.31043076 59.37586674 -25 71 C-31.07456991 74.77145077 -37.16096307 77.88462221 -44 80 C-39.64777198 83.83916049 -34.88493858 86.27257197 -29.75 88.875 C-6.87721325 100.7058265 -6.87721325 100.7058265 -2 113 C-1.19831727 115.65868792 -0.58273212 118.28058344 0 121 C0.33 121 0.66 121 1 121 C1.14695313 120.31035156 1.29390625 119.62070313 1.4453125 118.91015625 C3.49897884 110.30600243 6.47505849 103.19089359 13.875 97.9375 C18.74925905 94.96016071 23.90056927 92.48372112 29.02880859 89.97827148 C34.54124429 87.2782097 39.81522493 84.29033803 45 81 C42.25120691 79.16747127 39.70559286 77.93576232 36.6875 76.625 C32.4831275 74.72999374 28.70461921 72.77846441 25 70 C23.9275 69.236875 22.855 68.47375 21.75 67.6875 C8.5816177 56.04079743 3.10976514 38.90961019 1 22 C0.67 22 0.34 22 0 22 Z " fill="#663168" transform="translate(70,0)"/>
<path d="M0 0 C2 1 2 1 3.0078125 3.703125 C3.37648438 4.87359375 3.74515625 6.0440625 4.125 7.25 C7.83306118 18.2274414 13.8605675 27.16820935 21.76171875 35.6015625 C27.88939985 42.16769897 32.88551765 48.51713359 36 57 C36.268125 56.38125 36.53625 55.7625 36.8125 55.125 C38 53 38 53 41 51 C44.31222269 50.54488543 47.59944204 50.21667811 50.93164062 49.96484375 C57.14241825 49.34899489 61.11422231 47.20007397 65.25 42.375 C65.8275 41.59125 66.405 40.8075 67 40 C67.99 39.01 67.99 39.01 69 38 C66.25178694 53.66481446 59.13012732 69.36191709 47 80 C37.68712245 80.49015145 28.81840786 74.83775591 21.875 69.0625 C11.5751288 59.16069146 5.719108 47.63672934 2 34 C1.62670044 32.68701535 1.25173946 31.37450176 0.875 30.0625 C0.58625 29.051875 0.2975 28.04125 0 27 C-0.21914062 28.01578125 -0.43828125 29.0315625 -0.6640625 30.078125 C-3.59542506 43.04857379 -8.13151209 53.8808279 -17 64 C-17.58265625 64.68835938 -18.1653125 65.37671875 -18.765625 66.0859375 C-24.94296409 72.86024634 -33.35999448 78.17730137 -42.3125 80.4375 C-47.12305735 79.86675591 -48.83660046 78.2537383 -51.9921875 74.68359375 C-57.86106866 66.83938877 -62.06786069 58.42137587 -65.5625 49.3125 C-65.82627441 48.62929688 -66.09004883 47.94609375 -66.36181641 47.2421875 C-68.12655733 42.37967198 -68.12655733 42.37967198 -67 39 C-66.484375 39.9075 -65.96875 40.815 -65.4375 41.75 C-62.41439432 46.31704893 -58.14056596 48.28647801 -53 50 C-51.04291508 50.12545416 -49.08423694 50.22699714 -47.125 50.3125 C-42.24861754 50.67808127 -39.36057935 51.17589247 -36 55 C-35.67 55.66 -35.34 56.32 -35 57 C-34.78085937 56.443125 -34.56171875 55.88625 -34.3359375 55.3125 C-31.92599861 49.51297227 -28.996211 44.82757404 -25 40 C-24.38253906 39.24847656 -23.76507813 38.49695312 -23.12890625 37.72265625 C-19.61115843 33.56132879 -19.61115843 33.56132879 -18 32 C-17.34 32 -16.68 32 -16 32 C-15.62294922 31.20916016 -15.62294922 31.20916016 -15.23828125 30.40234375 C-13.9927879 27.98600808 -12.62347161 25.66365486 -11.23266602 23.32885742 C-7.4109392 16.8700409 -4.4315538 10.53477322 -1.91015625 3.44921875 C-1 1 -1 1 0 0 Z " fill="#B4520E" transform="translate(70,0)"/>
<path d="M0 0 C-0.3106694 2.70855454 -0.62347745 5.41683388 -0.9375 8.125 C-1.02451172 8.88554688 -1.11152344 9.64609375 -1.20117188 10.4296875 C-1.6915487 14.64329577 -2.25902978 18.821195 -3 23 C-2.21625 22.649375 -1.4325 22.29875 -0.625 21.9375 C4.12609609 20.70876825 8.23251256 20.8469713 13 22 C15.52623682 23.9100815 16.60686774 25.21373547 18 28 C18.32081773 34.52329391 17.55526246 40.55724088 16.4375 46.984375 C16.04162344 49.71309557 15.91849461 52.24919316 16 55 C17.98 55.33 19.96 55.66 22 56 C20.81139497 60.35821846 19.76680783 63.35305396 16 66 C10.82463108 66.67088116 7.36526834 65.84250031 3 63 C0.18187871 59.5413966 0.78616294 55.24561293 1 51 C1.38680773 47.8113328 1.9286859 44.66024194 2.5 41.5 C2.64308594 40.67757812 2.78617187 39.85515625 2.93359375 39.0078125 C3.28306912 37.00415373 3.64068156 35.00191702 4 33 C-1.11955137 33.92632473 -1.11955137 33.92632473 -4.80078125 37.3515625 C-6.52900829 42.60942589 -7.36062789 47.91185277 -8.1875 53.375 C-8.36474609 54.49261719 -8.54199219 55.61023438 -8.72460938 56.76171875 C-9.15860153 59.50642591 -9.58050302 62.25304007 -10 65 C-14.62 65 -19.24 65 -24 65 C-23.823479 63.87094238 -23.64695801 62.74188477 -23.46508789 61.57861328 C-22.80446489 57.34840647 -22.147445 53.11764629 -21.49145508 48.88671875 C-21.20824248 47.06332609 -20.92408173 45.24008042 -20.63891602 43.41699219 C-20.22676998 40.7809899 -19.81815348 38.14445974 -19.41015625 35.5078125 C-19.28407486 34.70634796 -19.15799347 33.90488342 -19.02809143 33.07913208 C-18.15430568 27.40144884 -17.52218997 21.72039875 -17 16 C-17.99 16.33 -18.98 16.66 -20 17 C-22.22818441 17.06937062 -24.45834524 17.08457084 -26.6875 17.0625 C-28.45673828 17.04896484 -28.45673828 17.04896484 -30.26171875 17.03515625 C-31.16535156 17.02355469 -32.06898438 17.01195313 -33 17 C-33.863371 22.38803206 -34.71752326 27.77741865 -35.56347656 33.16821289 C-35.85201409 34.99868336 -36.14298733 36.82877172 -36.43652344 38.65844727 C-36.86006452 41.3012572 -37.27458126 43.94535588 -37.6875 46.58984375 C-37.81874268 47.39646957 -37.94998535 48.2030954 -38.08520508 49.03416443 C-38.26539185 50.20435875 -38.26539185 50.20435875 -38.44921875 51.39819336 C-38.60910278 52.40746132 -38.60910278 52.40746132 -38.7722168 53.43711853 C-39.11349903 57.27702378 -39 61.14495838 -39 65 C-44.94 65 -50.88 65 -57 65 C-56.443125 62.855 -55.88625 60.71 -55.3125 58.5 C-51.87850827 44.54931729 -50.10489483 30.19764559 -48 16 C-50.60466543 16.30872329 -53.20867691 16.62181723 -55.8125 16.9375 C-56.55048828 17.02451172 -57.28847656 17.11152344 -58.04882812 17.20117188 C-61.16733121 17.58216546 -64.01108122 18.00369374 -67 19 C-67.35426009 10.14349776 -67.35426009 10.14349776 -65 6 C-57.40391379 1.48982381 -48.32548141 2.82274059 -39.91015625 3.26953125 C-38.99137695 3.3169043 -38.07259766 3.36427734 -37.12597656 3.41308594 C-35.28761535 3.51071498 -33.44966357 3.61648579 -31.61230469 3.73144531 C-26.24925949 4.03282969 -21.29219259 3.99191488 -16 3 C-15.34 2.34 -14.68 1.68 -14 1 C-9.29073531 0.07661477 -4.78448872 -0.03437956 0 0 Z " fill="#B4520D" transform="translate(372,31)"/>
<path d="M0 0 C6.27 0 12.54 0 19 0 C19.33 2.97 19.66 5.94 20 9 C20.61895416 11.42644825 21.30669789 13.83652999 22.06640625 16.22265625 C22.26475571 16.85360703 22.46310516 17.4845578 22.66746521 18.1346283 C23.29137866 20.11314789 23.92667203 22.08778135 24.5625 24.0625 C24.99230165 25.41837747 25.42134424 26.7744958 25.84960938 28.13085938 C26.89100546 31.42339507 27.94262727 34.71255523 29 38 C33.53223429 31.56192373 33.53223429 31.56192373 35 24 C34.29043666 20.54634686 33.26870472 17.22844309 32.1875 13.875 C31.91357422 12.98167969 31.63964844 12.08835937 31.35742188 11.16796875 C30.12695861 7.21986358 28.85959803 3.71919605 27 0 C33.27 0 39.54 0 46 0 C46.15275391 2.35318359 46.15275391 2.35318359 46.30859375 4.75390625 C46.87930524 11.0357588 48.35723538 16.8800519 50.0625 22.9375 C50.62031772 24.9453885 51.17388749 26.95446327 51.72265625 28.96484375 C51.96765869 29.8374585 52.21266113 30.71007324 52.46508789 31.60913086 C53 34 53 34 53 38 C53.66 38 54.32 38 55 38 C55.12149414 37.43104004 55.24298828 36.86208008 55.36816406 36.27587891 C56.04065466 33.85356154 56.97317675 31.82717244 58.109375 29.5859375 C58.74746094 28.31943359 58.74746094 28.31943359 59.3984375 27.02734375 C59.84445313 26.15207031 60.29046875 25.27679688 60.75 24.375 C61.18054688 23.52292969 61.61109375 22.67085937 62.0546875 21.79296875 C63.83058835 18.27838654 65.60680886 14.76429596 67.40820312 11.26269531 C67.85615234 10.38452148 68.30410156 9.50634766 68.765625 8.6015625 C69.17071289 7.81346191 69.57580078 7.02536133 69.99316406 6.21337891 C71.18624328 3.76766012 71.18624328 3.76766012 72 0 C78.27 0 84.54 0 91 0 C89.28083392 3.43833216 87.43464035 6.5955092 85.40234375 9.8515625 C81.373519 16.34585816 77.49153183 22.91925406 73.64306641 29.52160645 C71.79826472 32.68582064 69.94789759 35.84677696 68.09765625 39.0078125 C67.73979034 39.61935181 67.38192444 40.23089111 67.01321411 40.86096191 C55.53313527 60.46686473 55.53313527 60.46686473 54 62 C51.66702567 62.04092937 49.33294775 62.04241723 47 62 C44.69557475 56.07433507 42.76463072 50.10737442 41 44 C40.29875 45.11375 39.5975 46.2275 38.875 47.375 C38.18664062 48.45394531 38.18664062 48.45394531 37.484375 49.5546875 C36.45352068 51.25288436 35.4884951 52.99209466 34.578125 54.7578125 C33.19230921 57.37298101 31.89862238 59.72712994 30 62 C26.125 62.625 26.125 62.625 23 62 C19.27667946 53.39655118 16.06735006 44.68987736 13.0625 35.8125 C12.62550968 34.53245935 12.18800475 33.25259428 11.75 31.97290039 C10.89083968 29.46249831 10.03307047 26.95164017 9.17626953 24.44042969 C7.63525179 19.93316069 6.07700479 15.43229314 4.5 10.9375 C4.26933838 10.27274658 4.03867676 9.60799316 3.80102539 8.9230957 C2.70315869 5.80159587 1.48717899 2.97435798 0 0 Z " fill="#663168" transform="translate(162,35)"/>
<path d="M0 0 C0.33 0 0.66 0 1 0 C1.71099945 23.8895815 0.48627239 44.18874048 -16 63 C-16.87398437 64.03253906 -16.87398437 64.03253906 -17.765625 65.0859375 C-23.94296409 71.86024634 -32.35999448 77.17730137 -41.3125 79.4375 C-46.12305735 78.86675591 -47.83660046 77.2537383 -50.9921875 73.68359375 C-56.86106866 65.83938877 -61.06786069 57.42137587 -64.5625 48.3125 C-64.82627441 47.62929688 -65.09004883 46.94609375 -65.36181641 46.2421875 C-67.12655733 41.37967198 -67.12655733 41.37967198 -66 38 C-65.484375 38.9075 -64.96875 39.815 -64.4375 40.75 C-61.41439432 45.31704893 -57.14056596 47.28647801 -52 49 C-50.04291508 49.12545416 -48.08423694 49.22699714 -46.125 49.3125 C-41.24861754 49.67808127 -38.36057935 50.17589247 -35 54 C-34.67 54.66 -34.34 55.32 -34 56 C-33.78085937 55.443125 -33.56171875 54.88625 -33.3359375 54.3125 C-30.92599861 48.51297227 -27.996211 43.82757404 -24 39 C-23.38253906 38.24847656 -22.76507813 37.49695312 -22.12890625 36.72265625 C-18.61115843 32.56132879 -18.61115843 32.56132879 -17 31 C-16.34 31 -15.68 31 -15 31 C-14.62294922 30.20916016 -14.62294922 30.20916016 -14.23828125 29.40234375 C-12.99273504 26.98590551 -11.62338856 24.66345022 -10.23242188 22.32861328 C-5.9640352 15.11424197 -2.74425127 7.94249647 0 0 Z " fill="#AF003D" transform="translate(69,1)"/>
<path d="M0 0 C0.7734375 0.14824219 1.546875 0.29648437 2.34375 0.44921875 C5.14339594 1.57009149 6.04657731 2.68445584 7.5 5.3125 C9.00463297 14.57631867 6.42804979 24.26902835 4.5 33.3125 C9.40503104 31.77059082 9.40503104 31.77059082 12.76953125 28.24609375 C12.94871094 27.42238281 13.12789063 26.59867188 13.3125 25.75 C13.62574219 24.31527344 13.62574219 24.31527344 13.9453125 22.8515625 C15.06616036 15.7002374 15.82621002 8.51808927 16.5 1.3125 C21.45 0.6525 26.4 -0.0075 31.5 -0.6875 C30.85873961 6.91423722 30.00058012 14.446536 28.9375 22 C28.72963867 23.49950195 28.72963867 23.49950195 28.51757812 25.02929688 C28.18066996 27.45735914 27.84145223 29.88507335 27.5 32.3125 C29.48 32.9725 31.46 33.6325 33.5 34.3125 C32.94438546 37.64618725 32.34940814 40.45862098 30.5 43.3125 C25.99236206 44.99253613 22.19538796 44.62422564 17.875 42.6875 C14.50715939 40.86464055 14.50715939 40.86464055 11.125 42.625 C9.92875 43.181875 8.7325 43.73875 7.5 44.3125 C2.66492447 44.91271627 -2.26314655 44.92938007 -6.5 42.3125 C-9.17026145 38.65912567 -9.85013678 36.471873 -9.3125 32 C-9.19648438 30.96746094 -9.08046875 29.93492188 -8.9609375 28.87109375 C-8.80882812 27.69675781 -8.65671875 26.52242187 -8.5 25.3125 C-8.32448595 23.86601061 -8.15005608 22.41938937 -7.9765625 20.97265625 C-7.50468042 17.08316498 -7.00780521 13.19745635 -6.5 9.3125 C-7.82 9.3125 -9.14 9.3125 -10.5 9.3125 C-10.0020163 5.57762223 -9.62508244 3.50012365 -7.5 0.3125 C-4.32760295 -0.74496568 -3.18213603 -0.66294501 0 0 Z " fill="#AF003D" transform="translate(406.5,52.6875)"/>
<path d="M0 0 C2.10177622 2.31195384 2.93633188 3.98505531 3.1328125 7.1171875 C2.80658699 12.81653899 1.30816362 16.05848861 -3 20 C-8.36470809 23.64659897 -13.59171173 24.70331999 -20 25 C-19.67 26.65 -19.34 28.3 -19 30 C-15.29675249 31.0243025 -13.18401302 31.51680047 -9.6015625 29.953125 C-8.02185 29.0431288 -6.45929126 28.10251273 -4.91796875 27.12890625 C-3 26 -3 26 -1 26 C-1.18986112 34.88895239 -1.18986112 34.88895239 -4.1875 39 C-9.77619085 42.97418016 -15.29073483 43.76022249 -22 43 C-27.26890987 41.17614658 -29.876567 38.46204714 -33 34 C-33.8125 31.5625 -33.8125 31.5625 -34 29 C-34.0825 27.948125 -34.165 26.89625 -34.25 25.8125 C-33.5894402 15.73896307 -29.75491185 8.51716626 -22.5 1.625 C-16.13486835 -2.51233557 -6.79362522 -4.19606264 0 0 Z M-16 10 C-17.82629794 13.06680799 -17.82629794 13.06680799 -19 16 C-15.49588735 15.6814443 -13.4159895 15.30932553 -10.5625 13.1875 C-8.73121685 11.13826954 -8.73121685 11.13826954 -9.25 8.75 C-9.4975 8.1725 -9.745 7.595 -10 7 C-12.37022042 7 -14.16744526 8.69103233 -16 10 Z " fill="#673169" transform="translate(275,54)"/>
<path d="M0 0 C4.52049994 2.45774754 7.55699234 5.73898468 9.875 10.375 C10.56067286 17.78251496 10.57648901 23.43627704 5.875 29.375 C-0.04068342 33.96267286 -4.82573443 35.0319339 -12.125 34.375 C-18.90288092 32.34163572 -22.06292402 29.10637559 -25.4375 23 C-26.93343185 17.28826021 -26.74800942 12.99245993 -24.25 7.6875 C-19.06818156 -0.82128142 -9.05724013 -4.00478715 0 0 Z " fill="#663168" transform="translate(78.125,62.625)"/>
<path d="M0 0 C1 1 1 1 1.25 4.3125 C0.99337817 8.09767206 0.56295176 9.33025858 -2 12 C-2.86625 11.525625 -3.7325 11.05125 -4.625 10.5625 C-7.85387374 9.06765105 -10.49033826 8.41781687 -14 8 C-12.29642189 11.40715621 -10.43226169 13.58797107 -7.5 15.9375 C-4.24164424 18.65049537 -2.32312813 20.8652246 -1 25 C-1 29.96106471 -1.43845972 32.09813228 -4.0625 36.3125 C-9.59675663 41.37575607 -15.18701794 42.51795395 -22.59375 42.30078125 C-26.31759037 41.8353012 -30.27153848 40.72846152 -33 38 C-33.23529412 30.70588235 -33.23529412 30.70588235 -32 27 C-26.25 28.875 -26.25 28.875 -24 30 C-19.85496339 30.24787017 -19.85496339 30.24787017 -16 29 C-17.86406232 24.45128271 -21.17964805 22.14064453 -24.90625 19.09765625 C-27.20440252 16.79521613 -28.09799261 15.10527133 -29 12 C-28.91994803 7.59714152 -28.25203553 5.3816538 -25.8125 1.6875 C-19.03397484 -4.78975738 -7.77926529 -5.11793769 0 0 Z " fill="#B0003D" transform="translate(499,55)"/>
<path d="M0 0 C0.20124777 5.88837929 -0.57513472 11.37102206 -1.56640625 17.16796875 C-1.89008519 19.13214313 -2.21364952 21.0963364 -2.53710938 23.06054688 C-3.05037436 26.13545504 -3.56627704 29.20989561 -4.0847168 32.28393555 C-4.58540405 35.26503077 -5.07636845 38.24760739 -5.56640625 41.23046875 C-5.72468399 42.15031052 -5.88296173 43.07015228 -6.04603577 44.01786804 C-6.18625656 44.87588516 -6.32647736 45.73390228 -6.47094727 46.61791992 C-6.59752213 47.36957932 -6.72409698 48.12123871 -6.85450745 48.89567566 C-7.01080084 51.15621737 -6.66523309 52.84590916 -6 55 C-4.35 55.33 -2.7 55.66 -1 56 C-2.43909348 62.35599622 -2.43909348 62.35599622 -4.6875 64.9375 C-7.98402574 66.45211994 -10.41070732 66.37782028 -14 66 C-17.38546569 64.61503676 -18.70358313 63.46362638 -20.67578125 60.37890625 C-22.26413638 56.3260237 -22.04987648 53.2565504 -21.4375 49.0625 C-21.33961182 48.29325195 -21.24172363 47.52400391 -21.14086914 46.73144531 C-20.13838177 39.21539874 -18.75762367 31.75937368 -17.40112305 24.30078125 C-16.07422043 16.86458473 -15.26196965 9.5578243 -15 2 C-9.92523206 0.73694665 -5.27203646 -0.27036084 0 0 Z " fill="#663168" transform="translate(302,31)"/>
<path d="M0 0 C-0.98832306 8.87387939 -2.00147921 17.70027267 -3.6328125 26.484375 C-4.00392284 29.02687562 -4.0645994 31.43448106 -4 34 C-2.02 34.33 -0.04 34.66 2 35 C0.49001815 41.15607985 0.49001815 41.15607985 -1.125 43.9375 C-4.26605584 45.71743165 -7.53307348 45.51462191 -11 45 C-13.91927604 43.6038245 -15.72202996 42.27797004 -18 40 C-19.518196 33.91920019 -18.83137676 28.17601172 -17.625 22.125 C-17.33671085 20.55786476 -17.05154727 18.99015127 -16.76953125 17.421875 C-16.63369629 16.66970703 -16.49786133 15.91753906 -16.35791016 15.14257812 C-15.63068579 10.78915311 -15.28116709 6.40171925 -15 2 C-13.2508503 1.66223316 -11.50063855 1.32996329 -9.75 1 C-8.77546875 0.814375 -7.8009375 0.62875 -6.796875 0.4375 C-4 0 -4 0 0 0 Z " fill="#AF003D" transform="translate(462,52)"/>
<path d="M0 0 C5.7467103 3.42592345 9.22521629 7.95989584 11.375 14.24609375 C12.73754526 20.24980882 13.47459847 27.11951005 10.5 32.75 C8 35 8 35 4.1875 35.75 C0.03198771 35.39403433 -2.51107824 33.84124127 -5.45703125 30.94921875 C-10.72063837 24.29975052 -11.44365919 17.24419769 -11.43359375 8.98046875 C-10.94720053 5.63706309 -9.98935438 3.70921855 -8 1 C-4.98221063 -0.50889469 -3.37677363 -0.50026276 0 0 Z " fill="#B4520D" transform="translate(105,10)"/>
<path d="M0 0 C2.84780619 2.23206431 3.84997666 3.54992999 5 7 C5.92753226 16.13847357 4.14016211 23.43249148 -1.0625 31 C-3.15907279 33.16420417 -4.88198123 34.8264366 -7.9375 35.30078125 C-13.50925677 35.33243896 -13.50925677 35.33243896 -15.9375 33.6875 C-19.07710301 28.70107169 -18.50196517 22.65226538 -18 17 C-16.31228796 10.65140446 -13.64864882 4.55405418 -8.125 0.6875 C-5.21048689 -0.25543071 -3.04523814 -0.38065477 0 0 Z " fill="#B0003D" transform="translate(42,10)"/>
<path d="M0 0 C2.875 0.4375 2.875 0.4375 5.875 2.4375 C6.64455603 9.25356765 6.64455603 9.25356765 4.25 12.9375 C1.17389257 14.88030469 -0.54389189 14.95974493 -4.125 14.4375 C-6.5 13.3125 -6.5 13.3125 -8.125 11.4375 C-8.6875 8.5625 -8.6875 8.5625 -8.125 5.4375 C-5.60303097 2.02542425 -4.2481609 0.59474253 0 0 Z " fill="#AF003C" transform="translate(459.125,32.5625)"/>
</svg>
